<svg width="11" height="10" viewBox="0 0 11 10" fill="none" xmlns="http://www.w3.org/2000/svg">
<path d="M9.92578 4.99609C10.0625 4.85938 10.0625 4.66797 9.92578 4.53125L5.93359 0.484375C5.79688 0.347656 5.57812 0.347656 5.46875 0.484375L4.92188 1.03125C4.78516 1.14062 4.78516 1.35938 4.92188 1.49609L8.14844 4.75L4.92188 8.03125C4.78516 8.16797 4.78516 8.35938 4.92188 8.49609L5.46875 9.04297C5.57812 9.17969 5.79688 9.17969 5.93359 9.04297L9.92578 4.99609ZM5.55078 4.53125L1.55859 0.484375C1.42188 0.347656 1.20312 0.347656 1.09375 0.484375L0.546875 1.03125C0.410156 1.14062 0.410156 1.35938 0.546875 1.49609L3.77344 4.75L0.546875 8.03125C0.410156 8.16797 0.410156 8.35938 0.546875 8.49609L1.09375 9.04297C1.20312 9.17969 1.42188 9.17969 1.55859 9.04297L5.55078 4.99609C5.6875 4.85938 5.6875 4.66797 5.55078 4.53125Z" fill="#05172C"/>
</svg>
