<svg width="24" height="24" viewBox="0 0 24 24" fill="none" xmlns="http://www.w3.org/2000/svg">
<path d="M18.789 5H4.19182C4.07673 5 4 5.09146 4 5.22866V9.5503C4 9.6875 4.07673 9.77896 4.19182 9.77896H5.03581V19.7713C5.03581 19.9085 5.11253 20 5.22762 20H17.7724C17.8875 20 17.9642 19.9085 17.9642 19.7713V9.77896H18.8082C18.9233 9.77896 19 9.6875 19 9.5503V5.22866C18.9808 5.09146 18.9041 5 18.789 5ZM17.0051 18.8567H5.99489V9.96189H17.0051V18.8567ZM18.0217 8.63567H4.95908V6.14329H18.0217V8.63567Z" fill="#078CFF"/>
<path d="M12.9194 12.0889H10.1381C10.023 12.0889 9.94629 12.1803 9.94629 12.3175V12.6834C9.94629 12.8206 10.023 12.912 10.1381 12.912H12.9386C13.0537 12.912 13.1304 12.8206 13.1304 12.6834V12.3175C13.1113 12.2032 13.0345 12.0889 12.9194 12.0889Z" fill="#078CFF"/>
</svg>
