<svg width="32" height="20" viewBox="0 0 32 20" fill="none" xmlns="http://www.w3.org/2000/svg">
<path fill-rule="evenodd" clip-rule="evenodd" d="M22.625 0.927673L22.6155 0.9278H9.38428C9.3769 0.927673 9.36946 0.9278 9.36209 0.927927H9.3559C4.19698 0.93844 0 5.19992 0 10.4276C0 15.6553 4.19698 19.917 9.35715 19.9275H22.6155L22.625 19.9277C27.7944 19.9277 32 15.6659 32 10.4276C32 5.18941 27.7944 0.927673 22.625 0.927673ZM10.9984 5.44584C10.6994 5.27092 10.3173 5.37485 10.1446 5.67764C9.3229 7.1198 8.88859 8.7624 8.88859 10.4276C8.88859 13.9428 10.7825 17.018 13.5904 18.6609H9.37821L9.3584 18.6608C4.88742 18.6517 1.25 14.9584 1.25 10.4276C1.25 5.89709 4.88742 2.20364 9.35715 2.19446H9.37359H9.3764H17.9517C17.8716 2.24132 17.7925 2.28971 17.7139 2.33892L17.6813 2.35948L17.6609 2.37236C17.5951 2.41422 17.5297 2.45685 17.4649 2.50029L17.4521 2.5088L17.4228 2.52841C17.3436 2.58225 17.265 2.63697 17.1874 2.69314L17.1846 2.69517C17.1103 2.749 17.0371 2.80416 16.9644 2.86015C16.9529 2.86893 16.9415 2.87784 16.9302 2.88673C16.926 2.88997 16.9219 2.89321 16.9177 2.89644C16.8542 2.9459 16.7914 2.99613 16.7293 3.04717L16.7159 3.05811L16.6963 3.07415C16.6221 3.13571 16.5489 3.19816 16.4766 3.26193L16.4694 3.26839C16.4021 3.32799 16.3357 3.3886 16.2701 3.45003L16.2281 3.48962C16.1684 3.54624 16.1094 3.60355 16.0511 3.66169L16.0394 3.67332L16.0252 3.68728C15.9571 3.75574 15.89 3.82522 15.8239 3.89577L15.812 3.90875C15.7523 3.97285 15.6936 4.03783 15.6356 4.10357L15.5975 4.14708C15.5424 4.21028 15.488 4.27425 15.4346 4.33891L15.4148 4.36272C15.3534 4.43752 15.2931 4.5132 15.234 4.58984L15.2254 4.60117L15.2183 4.61061C15.1665 4.67812 15.1157 4.74646 15.0657 4.81549L15.0307 4.86413C14.9814 4.93297 14.9329 5.00245 14.8855 5.07269L14.8694 5.09618C14.8157 5.17617 14.7631 5.25705 14.7118 5.33875L14.6924 5.3701C14.649 5.43976 14.6066 5.51006 14.5649 5.58093L14.5329 5.63572C14.4902 5.70943 14.4484 5.78366 14.4076 5.85865L14.3945 5.8824C14.3489 5.96682 14.3046 6.05207 14.2616 6.13801L14.2406 6.18063C14.2055 6.25163 14.1712 6.32307 14.1378 6.39508L14.1377 6.39515C14.1282 6.41571 14.1186 6.43627 14.1092 6.45695C14.0737 6.53485 14.039 6.61326 14.0056 6.6923L13.9951 6.71636C13.9581 6.80452 13.9224 6.89338 13.888 6.98287L13.8764 7.01373L13.8676 7.03721C13.8405 7.10871 13.8143 7.18066 13.7889 7.25286L13.7763 7.28892L13.7647 7.32259C13.7368 7.40429 13.7097 7.48643 13.6839 7.56914L13.6806 7.57952L13.6763 7.59302C13.6481 7.68415 13.6214 7.77605 13.5959 7.86845C13.5922 7.88159 13.5888 7.89477 13.5853 7.90796L13.5783 7.93426C13.5589 8.00601 13.5405 8.07802 13.5229 8.15035L13.5205 8.16026C13.515 8.18256 13.5095 8.2049 13.5043 8.22723C13.4842 8.31299 13.465 8.39906 13.4471 8.48563L13.4451 8.49498L13.4425 8.50723C13.4234 8.60096 13.4061 8.69539 13.3897 8.79014C13.387 8.80605 13.3844 8.822 13.3818 8.83795L13.3818 8.838L13.3772 8.86626C13.3654 8.93821 13.3544 9.01041 13.3443 9.08286L13.3416 9.10155C13.3386 9.12289 13.3356 9.14421 13.3328 9.16564C13.3208 9.25639 13.3099 9.34734 13.3005 9.43886L13.2997 9.44561L13.2988 9.45393C13.2891 9.55007 13.2813 9.64684 13.2744 9.74387C13.2731 9.7624 13.272 9.781 13.2708 9.79959L13.2691 9.82747C13.2646 9.90017 13.2609 9.9732 13.2581 10.0464L13.2572 10.0679L13.2572 10.068C13.2563 10.0895 13.2555 10.1109 13.2548 10.1325C13.2518 10.2306 13.2498 10.3289 13.2498 10.4277C13.2498 10.5266 13.2518 10.6249 13.2548 10.723C13.2555 10.7447 13.2564 10.7662 13.2572 10.7878L13.2572 10.788L13.2581 10.8091C13.2609 10.8823 13.2646 10.9553 13.2691 11.028L13.2709 11.0563L13.2709 11.0563C13.272 11.0748 13.2731 11.0933 13.2744 11.1117C13.2813 11.2087 13.2891 11.3054 13.2988 11.4015L13.3006 11.4169C13.3099 11.5083 13.3209 11.5991 13.3328 11.6898C13.3365 11.7175 13.3404 11.7451 13.3443 11.7729C13.3545 11.8452 13.3654 11.9171 13.3772 11.989L13.3814 12.0149C13.3841 12.0318 13.3868 12.0487 13.3898 12.0656C13.4061 12.1602 13.4234 12.2545 13.4425 12.3481C13.444 12.3557 13.4458 12.3632 13.4474 12.3708C13.4651 12.4569 13.4842 12.5425 13.5043 12.6279C13.5104 12.6539 13.5167 12.6798 13.5231 12.7058C13.5406 12.7777 13.5589 12.8493 13.5781 12.9206L13.5844 12.9444C13.5882 12.9588 13.592 12.9732 13.596 12.9876C13.6215 13.0797 13.648 13.1713 13.6762 13.2623L13.6803 13.2752L13.6844 13.288C13.71 13.3699 13.7368 13.4513 13.7645 13.5323C13.7708 13.5506 13.7772 13.5689 13.7836 13.5872C13.7855 13.5927 13.7875 13.5983 13.7894 13.6038C13.8144 13.6751 13.8403 13.7461 13.867 13.8167L13.8721 13.8302C13.8775 13.8447 13.8828 13.8592 13.8884 13.8735C13.9227 13.9625 13.9581 14.0509 13.9949 14.1385C13.9988 14.1477 14.0029 14.1567 14.0068 14.1659C14.0398 14.2437 14.0739 14.3208 14.1088 14.3974C14.1186 14.419 14.1285 14.4404 14.1385 14.4618C14.1714 14.5326 14.2051 14.6029 14.2398 14.6728L14.2549 14.7037L14.2621 14.7184C14.305 14.8039 14.3489 14.8885 14.3943 14.9724C14.3992 14.9816 14.4044 14.9906 14.4094 14.9998C14.4494 15.0733 14.4904 15.1461 14.5323 15.2185L14.566 15.2762C14.6068 15.3456 14.6484 15.4144 14.6909 15.4827L14.7007 15.4986L14.7126 15.5179C14.7636 15.5989 14.8156 15.6792 14.8689 15.7585L14.8878 15.7861C14.9342 15.8547 14.9816 15.9226 15.0297 15.9899L15.0671 16.0419C15.1159 16.1092 15.1655 16.1758 15.216 16.2418L15.235 16.2669C15.2936 16.3428 15.3533 16.4178 15.4139 16.4919L15.4286 16.5094L15.4374 16.52C15.4896 16.5831 15.5426 16.6453 15.5963 16.707L15.6371 16.7536C15.6938 16.8178 15.7512 16.8814 15.8096 16.9441L15.8249 16.9608C15.8905 17.0308 15.9571 17.0997 16.0247 17.1677C16.0341 17.1772 16.0438 17.1865 16.0532 17.1959C16.1105 17.253 16.1685 17.3094 16.2272 17.365L16.2442 17.3811L16.2713 17.4066C16.3359 17.467 16.4011 17.5267 16.4674 17.5852L16.4774 17.5943C16.5492 17.6577 16.6222 17.7199 16.696 17.7811L16.7179 17.7989L16.7307 17.8094C16.7922 17.86 16.8544 17.9097 16.9172 17.9587L16.9308 17.9692L16.9651 17.9958C17.0376 18.0516 17.1106 18.1067 17.1847 18.1603L17.1877 18.1625C17.2652 18.2187 17.3439 18.2735 17.4232 18.3273L17.4647 18.3551C17.5299 18.3988 17.5957 18.4417 17.662 18.4838L17.6627 18.4842C17.6795 18.495 17.6963 18.5057 17.7132 18.5163C17.7882 18.5632 17.8636 18.6093 17.94 18.6541C13.6092 18.4809 10.1386 14.8576 10.1386 10.4276C10.1386 8.98444 10.515 7.56091 11.2271 6.31097C11.3998 6.00805 11.2973 5.62077 10.9984 5.44584ZM22.6238 18.6609L22.626 18.661C27.1056 18.6605 30.75 14.9672 30.75 10.4275C30.75 5.88803 27.1057 2.19477 22.626 2.19427L22.6238 2.19439C18.3543 2.19515 14.8435 5.55034 14.5238 9.7951C14.5195 9.85153 14.5162 9.90822 14.5131 9.96496C14.5123 9.9782 14.5113 9.99131 14.5106 10.0045C14.5094 10.0289 14.5086 10.0533 14.5077 10.0777C14.5074 10.0889 14.507 10.1001 14.5066 10.1113C14.5026 10.2163 14.5 10.3216 14.5 10.4275C14.5 10.5335 14.5026 10.6388 14.5066 10.7438C14.5079 10.7794 14.5088 10.8151 14.5106 10.8506C14.5109 10.8572 14.5114 10.8638 14.5118 10.8704C14.5123 10.877 14.5127 10.8836 14.5131 10.8902C14.5162 10.9469 14.5195 11.0036 14.5238 11.0601C14.8436 15.305 18.3543 18.6603 22.6238 18.6609Z" fill="black"/>
<path d="M28.3999 9.32767C28.0686 9.32767 27.7999 9.59641 27.7999 9.92767C27.7999 12.5745 25.6467 14.7277 23 14.7277C20.3533 14.7277 18.1999 12.5745 18.1999 9.92767C18.1999 7.28101 20.3533 5.12767 23 5.12767C23.7193 5.12767 24.4419 5.29327 25.0895 5.60647C25.3878 5.75059 25.7465 5.62579 25.8909 5.32747C26.0352 5.02921 25.9103 4.67041 25.612 4.52617C24.8025 4.13467 23.8992 3.92767 23 3.92767C19.6916 3.92767 17 6.61921 17 9.92767C17 13.2361 19.6916 15.9277 23 15.9277C26.3085 15.9277 29 13.2361 29 9.92767C28.9999 9.59641 28.7313 9.32767 28.3999 9.32767Z" fill="black"/>
<path fill-rule="evenodd" clip-rule="evenodd" d="M20 9.92761C20 8.27345 21.3458 6.92767 23 6.92767C24.6542 6.92767 26 8.27345 26 9.92761C26 11.5819 24.6542 12.9277 23 12.9277C21.3458 12.9277 20 11.5819 20 9.92761ZM21.2 9.92761C21.2 10.9202 22.0075 11.7277 23 11.7277C23.9925 11.7277 24.8 10.9202 24.8 9.92761C24.8 8.93517 23.9925 8.12765 23 8.12765C22.0075 8.12765 21.2 8.93517 21.2 9.92761Z" fill="black"/>
<path d="M6.96542 13.1323C6.66857 12.3637 6.51798 11.5658 6.51798 10.7608C6.51798 10.0652 6.63107 9.37144 6.85422 8.69911C6.96276 8.37226 6.72246 8.03622 6.31752 7.94872C5.91235 7.86109 5.49633 8.0551 5.38794 8.38195C5.13048 9.15771 5 9.95817 5 10.7608C5 11.6897 5.17367 12.6103 5.51621 13.4971C5.61754 13.7595 5.91721 13.9277 6.24063 13.9277C6.31547 13.9277 6.3916 13.9186 6.46674 13.8997C6.8669 13.7989 7.09013 13.4555 6.96542 13.1323Z" fill="black"/>
<path d="M6.93038 14.1795C6.79544 13.9415 6.49218 13.8573 6.25302 13.9916C6.01381 14.1258 5.92934 14.4276 6.06423 14.6655L6.07596 14.6857C6.1686 14.8414 6.33342 14.9277 6.50282 14.9277C6.58914 14.9277 6.6767 14.9053 6.7565 14.8582C6.99278 14.7191 7.0703 14.4145 6.93038 14.1795Z" fill="black"/>
<path d="M26.8574 6.0871L26.8444 6.07417C26.6527 5.88031 26.3404 5.87868 26.1465 6.07032C25.9527 6.26195 25.951 6.57446 26.1426 6.76821L26.1556 6.78114C26.2521 6.87881 26.3793 6.92767 26.5065 6.92767C26.6319 6.92767 26.7573 6.88025 26.8535 6.78509C27.0473 6.59346 27.049 6.28095 26.8574 6.0871Z" fill="black"/>
</svg>
