<svg width="32" height="32" viewBox="0 0 32 32" fill="none" xmlns="http://www.w3.org/2000/svg">
<path fill-rule="evenodd" clip-rule="evenodd" d="M26.1333 22.4C28.4187 22.4 29.7933 23.1574 30.5445 23.7929C31.4695 24.5755 32 25.623 32 26.6667C32 27.7103 31.4695 28.7578 30.5445 29.5405C29.7933 30.1759 28.4187 30.9333 26.1333 30.9333C25.5893 30.9391 25.0481 30.8535 24.5324 30.68C24.2161 31.0063 23.8461 31.2759 23.4385 31.477C22.7815 31.7977 22.0641 31.9759 21.3333 32C20.6026 31.9759 19.8852 31.7977 19.2281 31.477C18.512 31.131 17.9237 30.5673 17.5475 29.8667H10.2918C9.78852 30.5357 9.00104 30.9304 8.16389 30.9333H3.5695C2.18179 30.9267 1.02859 29.862 0.911299 28.4793L0.00170033 17.1092C-0.0101702 16.9608 0.0405032 16.8142 0.141473 16.7049C0.242442 16.5955 0.38452 16.5333 0.533366 16.5333H8.00002V6.93333C8.00011 6.86935 8.01177 6.80591 8.03442 6.74607H8.03396L9.60002 2.56993V0.533333C9.60002 0.238781 9.8388 0 10.1334 0H19.7333C20.0279 0 20.2667 0.238781 20.2667 0.533333V2.56993L21.8327 6.74627H21.8323C21.8549 6.80604 21.8666 6.86942 21.8667 6.93333V21.9135C22.5816 22.0357 23.2761 22.3985 23.8632 22.9582C24.4981 22.5877 25.2592 22.4 26.1333 22.4ZM17.7637 6.4L18.9637 3.2H10.503L9.30296 6.4H17.7637ZM19.7333 4.1856L20.5637 6.4H18.9029L19.7333 4.1856ZM17.6 10.6667V7.46667H9.06669V10.6667H17.6ZM20.8 7.46667V21.9133C20.0286 22.0451 19.2811 22.4574 18.6667 23.0945V7.46667H20.8ZM19.2 2.13333V1.06667H10.6667V2.13333H19.2ZM9.06669 11.7333H17.6V24.7609C17.4886 25.034 17.3958 25.3144 17.3221 25.6H11.0524L11.7317 17.1092C11.7436 16.9608 11.6929 16.8142 11.5919 16.7049C11.4909 16.5955 11.3489 16.5333 11.2 16.5333H9.06669V11.7333ZM10.4516 19.7333L10.6223 17.6H1.1111L1.28177 19.7333H10.4516ZM8.16389 29.8667H3.5695C2.73688 29.8627 2.04496 29.2239 1.97463 28.3943L1.3671 20.8H10.3663L9.75876 28.3943C9.68843 29.2239 8.9965 29.8627 8.16389 29.8667ZM10.8224 28.4793C10.8134 28.587 10.7978 28.6941 10.7757 28.8H17.1709C17.0999 28.4489 17.0649 28.0915 17.0667 27.7333C17.0662 27.3769 17.086 27.0208 17.126 26.6667H10.9671L10.8224 28.4793ZM22.9913 30.5079C22.4742 30.7633 21.9096 30.9082 21.3333 30.9333C21.2027 30.9333 18.1333 30.8969 18.1333 27.7333C18.1333 24.2365 20.0961 22.9333 21.3333 22.9333C22.5705 22.9333 24.5333 24.2365 24.5333 27.7333C24.5333 29.05 24.0145 29.9835 22.9913 30.5079ZM25.1743 29.7586C25.4886 29.8326 25.8105 29.8689 26.1333 29.8667C29.6302 29.8667 30.9333 27.9039 30.9333 26.6667C30.9333 25.4295 29.6302 23.4667 26.1333 23.4667C25.5276 23.4667 25.0009 23.5771 24.56 23.7947C25.0925 24.6025 25.6 25.8628 25.6 27.7333C25.6 28.5605 25.4339 29.2253 25.1743 29.7586Z" fill="black"/>
</svg>
