<svg width="18" height="14" viewBox="0 0 18 14" fill="none" xmlns="http://www.w3.org/2000/svg">
<path d="M1.71021 4.31536C1.93561 4.47441 2.61504 4.9468 3.74855 5.73229C4.88209 6.51777 5.75047 7.12257 6.3537 7.54673C6.41998 7.59322 6.56078 7.69429 6.77619 7.85007C6.99162 8.00595 7.17063 8.13192 7.31308 8.22801C7.45562 8.32406 7.62794 8.43182 7.83022 8.5511C8.03242 8.67028 8.22303 8.75992 8.40201 8.81927C8.58102 8.8791 8.74672 8.90874 8.89916 8.90874H8.90915H8.91918C9.07162 8.90874 9.2374 8.87906 9.41641 8.81927C9.59531 8.75992 9.78609 8.67017 9.98812 8.5511C10.1903 8.43168 10.3626 8.32403 10.5051 8.22801C10.6477 8.13192 10.8265 8.00595 11.0421 7.85007C11.2574 7.69415 11.3984 7.59322 11.4647 7.54673C12.0744 7.12257 13.6257 6.04534 16.1181 4.31515C16.6019 3.97722 17.0062 3.56947 17.331 3.09217C17.656 2.61508 17.8183 2.11458 17.8183 1.59096C17.8183 1.15339 17.6608 0.778832 17.3459 0.467306C17.031 0.155711 16.6581 0 16.2273 0H1.59085C1.08047 0 0.68769 0.172323 0.412593 0.516969C0.137531 0.861685 0 1.29256 0 1.80957C0 2.22718 0.182353 2.67972 0.546886 3.16691C0.911383 3.65413 1.29928 4.03699 1.71021 4.31536Z" fill="#6D6D6D"/>
<path d="M16.8239 5.3787C14.6498 6.85017 12.999 7.99374 11.8723 8.80918C11.4945 9.08748 11.1879 9.30473 10.9525 9.4604C10.7172 9.61618 10.4041 9.77527 10.0129 9.9376C9.62189 10.1002 9.25746 10.1812 8.91932 10.1812H8.90919H8.89919C8.56113 10.1812 8.19649 10.1002 7.80546 9.9376C7.41442 9.77527 7.10115 9.61618 6.86583 9.4604C6.63057 9.30473 6.32396 9.08748 5.94616 8.80918C5.05121 8.15297 3.40397 7.00933 1.00437 5.3787C0.62643 5.12697 0.291675 4.83843 0 4.51367V12.4084C0 12.8462 0.155711 13.2205 0.467306 13.5321C0.778832 13.8437 1.15343 13.9995 1.59096 13.9995H16.2275C16.6649 13.9995 17.0395 13.8437 17.351 13.5321C17.6627 13.2204 17.8183 12.8462 17.8183 12.4084V4.51367C17.5333 4.83171 17.2019 5.12025 16.8239 5.3787Z" fill="#6D6D6D"/>
</svg>
