<svg width="14" height="18" viewBox="0 0 14 18" fill="none" xmlns="http://www.w3.org/2000/svg">
<path d="M7.59375 8.58203C7.59375 8.33594 7.38281 8.16016 7.17188 8.16016H6.32812C6.08203 8.16016 5.90625 8.33594 5.90625 8.58203V11.5352H4.18359C3.79688 11.5352 3.62109 11.9922 3.86719 12.2383L6.39844 14.7695C6.57422 14.9453 6.89062 14.9453 7.06641 14.7695L9.59766 12.2383C9.84375 11.9922 9.66797 11.5352 9.28125 11.5352H7.59375V8.58203ZM12.9727 3.69531L10.0195 0.777344C9.70312 0.460938 9.28125 0.25 8.85938 0.25H1.65234C0.738281 0.285156 0 1.02344 0 1.97266V16.5977C0 17.5117 0.738281 18.25 1.65234 18.25H11.7773C12.7266 18.25 13.5 17.5117 13.5 16.5977V4.89062C13.5 4.46875 13.2891 4.01172 12.9727 3.69531ZM8.96484 2.07812L11.6719 4.78516H8.96484V2.07812ZM11.8125 16.5977H1.65234V1.97266H7.27734V5.62891C7.27734 6.08594 7.66406 6.47266 8.12109 6.47266H11.8125V16.5977Z" fill="#FC4B4E"/>
</svg>
