<svg width="27" height="26" viewBox="0 0 27 26" fill="none" xmlns="http://www.w3.org/2000/svg">
<path fill-rule="evenodd" clip-rule="evenodd" d="M26.1618 12.05C26.4124 11.3573 26.4393 10.6849 26.2388 10.0444C26.0132 9.32358 25.5404 8.79418 25.1391 8.4523C25.5784 8.00697 25.8093 7.3884 25.7645 6.76489C26.5028 6.40789 27 5.64997 27 4.80666C27 3.96341 26.5028 3.20549 25.7645 2.84844C25.823 2.03352 25.4121 1.22611 24.6783 0.804458C23.9444 0.382855 23.0364 0.432505 22.3566 0.890216C21.6768 0.432452 20.7687 0.382855 20.0349 0.804458C19.3012 1.22611 18.8903 2.03363 18.9487 2.84844C18.8816 2.88098 18.8171 2.91788 18.7541 2.95677C17.3795 0.846445 15.8746 0.565446 15.0618 0.597986C13.8796 0.645537 12.7568 1.3969 12.2678 2.46772C11.9421 3.18119 11.4069 3.47993 11.0153 3.60489C10.4095 3.79824 9.71662 3.7234 9.16196 3.40472C8.55874 3.05811 7.84218 2.69414 7.10048 2.62244C6.38129 2.55296 5.73703 2.76845 5.18027 3.26159C4.97824 3.2152 4.80765 3.2481 4.69875 3.28495C4.12321 3.47998 3.78228 4.25044 3.51133 5.34321C3.29686 4.51433 3.08229 3.83388 2.90742 3.32861C2.82663 3.09517 2.76799 2.90224 2.72095 2.7472C2.59566 2.33447 2.49667 2.00844 2.13476 1.90688C1.77327 1.80543 1.51867 2.03085 1.19662 2.31625C1.15765 2.35079 1.11551 2.3881 1.06984 2.4282L0.178794 3.20974C0.010308 3.35748 -0.0457485 3.59523 0.0392063 3.80218C0.735984 5.4984 1.54503 10.1934 1.82004 11.8698H1.5685C0.703658 11.8698 2.4821e-05 12.5701 2.4821e-05 13.4309V15.5572C2.4821e-05 15.9546 0.150212 16.3176 0.396744 16.5934C0.150159 16.8693 2.4821e-05 17.2322 2.4821e-05 17.6296V19.756C2.4821e-05 20.1534 0.150212 20.5163 0.396744 20.7922C0.150159 21.068 2.4821e-05 21.4309 2.4821e-05 21.8283V23.9547C2.4821e-05 24.8154 0.703658 25.5156 1.5685 25.5156H25.4314C26.2963 25.5156 26.9999 24.8154 26.9999 23.9547V21.8283C26.9999 21.4309 26.8497 21.068 26.6032 20.7921C26.8498 20.5163 26.9999 20.1533 26.9999 19.7559V17.6296C26.9999 17.2322 26.8497 16.8692 26.6032 16.5934C26.8498 16.3175 26.9999 15.9546 26.9999 15.5572V13.4308C26.9999 12.8324 26.6597 12.3119 26.1618 12.05ZM25.2318 10.3566C25.3773 10.8212 25.3323 11.3291 25.1 11.8698H22.3638L22.4252 11.7645C23.0468 10.6929 23.4057 9.83309 23.5288 9.099L23.5423 9.09936C23.557 9.09976 23.5716 9.10016 23.5861 9.10016C23.7784 9.10016 23.97 9.0747 24.1559 9.02468C24.4474 9.22045 25.0189 9.67648 25.2318 10.3566ZM20.0061 3.45615C19.9315 3.58468 19.8057 3.67585 19.6599 3.70692C19.143 3.81708 18.7679 4.27967 18.7679 4.80677C18.7679 5.023 18.8308 5.23215 18.9454 5.41102C19.2135 5.31612 19.4877 5.26994 19.7727 5.26994C20.0372 5.26994 20.3089 5.31119 20.5959 5.39538C20.7458 5.00295 20.8477 4.52839 20.8008 4.16531C20.7637 3.87786 20.9678 3.61486 21.2567 3.57791C21.5453 3.54081 21.8098 3.74408 21.8469 4.03164C21.9212 4.60696 21.7798 5.2701 21.5664 5.81036C21.6182 5.8385 21.6705 5.86752 21.7235 5.89801C21.7747 5.9274 21.8265 5.95784 21.8786 5.98928C22.242 5.5354 22.7483 5.08215 23.2859 4.85852C23.5546 4.74678 23.8635 4.873 23.9757 5.14041C24.0881 5.40781 23.9612 5.71526 23.6925 5.827C23.3537 5.96792 22.9924 6.29217 22.726 6.61699C23.1096 6.98144 23.4234 7.44382 23.5341 8.0489C23.7477 8.05872 23.962 8.00844 24.1509 7.8999C24.6095 7.63628 24.8244 7.08168 24.6619 6.58114C24.616 6.43986 24.6324 6.28587 24.707 6.15728C24.7816 6.0287 24.9074 5.93759 25.0533 5.90652C25.5701 5.79635 25.9452 5.33386 25.9452 4.80672C25.9452 4.27957 25.5701 3.81703 25.0532 3.70687C24.9074 3.6758 24.7816 3.58468 24.707 3.4561C24.6324 3.32751 24.616 3.17353 24.6619 3.03229C24.8244 2.53175 24.6096 1.97716 24.1509 1.71358C23.6923 1.45001 23.1021 1.54207 22.7479 1.93244C22.6478 2.0426 22.5057 2.10548 22.3565 2.10548C22.2074 2.10548 22.0651 2.0426 21.9652 1.93244C21.611 1.54212 21.0209 1.45017 20.5622 1.71364C20.1036 1.97721 19.8887 2.53181 20.0512 3.03234C20.0971 3.17358 20.0806 3.32756 20.0061 3.45615ZM18.9759 7.93638C19.1581 7.93638 19.3354 7.84222 19.4331 7.67385C19.5787 7.42282 19.4923 7.10183 19.2401 6.95693L18.7826 6.69409C18.8717 6.6257 18.957 6.5686 19.0384 6.5222C19.0525 6.51543 19.0662 6.50777 19.0798 6.49969C19.3482 6.35562 19.576 6.31961 19.7727 6.31961C20.1651 6.31961 20.6174 6.47449 21.1961 6.80703C22.0342 7.28857 22.4259 7.73342 22.506 8.29463C22.5702 8.74389 22.4417 9.32998 22.1164 10.0688L21.3086 9.60463C21.0563 9.45956 20.7339 9.54569 20.5883 9.79672C20.4426 10.0478 20.529 10.3687 20.7813 10.5136L21.6431 11.0088C21.6008 11.0846 21.5572 11.1614 21.5118 11.2396C21.3883 11.4524 21.2639 11.6634 21.1403 11.8697H15.5317C15.7434 11.4202 15.9769 10.9533 16.2296 10.472L16.8257 10.8145C16.9088 10.8622 16.9994 10.8849 17.0889 10.8849C17.2711 10.8849 17.4484 10.7908 17.5461 10.6223C17.6917 10.3713 17.6053 10.0503 17.3531 9.90541L16.7293 9.54706C16.8748 9.28542 17.0254 9.02017 17.1814 8.75124C17.4907 8.21801 17.7718 7.80013 18.0283 7.47263L18.7128 7.86595C18.7958 7.91371 18.8864 7.93638 18.9759 7.93638ZM11.8927 6.63877C9.60514 6.63877 7.74405 8.49098 7.74405 10.7677C7.74405 11.1432 7.79441 11.5125 7.89376 11.8698V11.8699H14.3716C14.7103 11.1196 15.1083 10.3221 15.5615 9.48554L15.5628 9.48292L15.5634 9.48219C15.6165 9.38409 15.6705 9.28542 15.7252 9.18628C15.0866 7.65365 13.5749 6.63877 11.8927 6.63877ZM8.06894 5.17594C7.48565 4.86072 6.93199 4.81312 6.48544 4.86366C6.49799 4.83007 6.51075 4.79737 6.52388 4.76552C6.60773 4.5613 6.55436 4.3267 6.39031 4.17838L6.07511 3.89345C6.69005 3.48276 7.42653 3.61969 8.63473 4.31389C9.14614 4.60775 9.73856 4.75917 10.3288 4.75917C10.6712 4.75917 11.0129 4.7082 11.3375 4.6046C12.1779 4.33636 12.8493 3.73174 13.2281 2.90213C13.4924 2.32329 14.1923 1.68361 15.1045 1.64693C16.1333 1.60515 17.1539 2.34502 18.0004 3.73652C17.8178 4.05573 17.7133 4.42206 17.7133 4.80677C17.7133 5.21194 17.8276 5.604 18.036 5.94252C17.8647 6.0837 17.6942 6.24839 17.523 6.43734C17.5171 6.44363 17.5112 6.44993 17.5056 6.45655C17.1268 6.87825 16.7452 7.41952 16.3475 8.09152C15.8303 7.24008 15.0801 6.56109 14.198 6.12653C14.2957 5.77887 14.4793 5.25251 14.7903 4.77486C14.9488 4.53165 14.8791 4.20662 14.6347 4.04895C14.3902 3.89119 14.0638 3.96062 13.9053 4.20389C13.5498 4.74972 13.3319 5.33743 13.2074 5.75825C12.7845 5.64803 12.3437 5.58899 11.8927 5.58899C9.02359 5.58899 6.68941 7.91208 6.68941 10.7675C6.68941 11.1409 6.72991 11.5094 6.80849 11.8697H5.97033C5.92967 10.7405 5.87166 7.92756 6.20099 5.99899C6.47257 5.8999 6.99522 5.79005 7.56565 6.0984C7.64564 6.14159 7.73181 6.16211 7.81687 6.16211C8.00397 6.16211 8.18517 6.06276 8.28078 5.88762C8.41973 5.63292 8.32491 5.31429 8.06894 5.17594ZM4.19643 7.25904L4.19567 7.26327C4.14757 7.53036 4.10507 7.76617 4.06568 7.95307C4.26206 9.1212 4.41578 10.4372 4.47684 11.8697H4.91412C4.8626 10.4527 4.79578 6.70075 5.42105 4.72033L4.99886 4.33867C4.91923 4.44872 4.77179 4.71797 4.59924 5.34583C4.43017 5.96107 4.30066 6.68023 4.19643 7.25904ZM1.14895 3.75798L1.76298 3.21955C1.80306 3.34903 1.85073 3.49845 1.91032 3.6706C2.4124 5.12136 3.25362 8.0658 3.4211 11.8698H2.88902C2.65424 10.4173 1.88359 5.85188 1.14895 3.75798ZM25.4315 24.4658C25.7148 24.4658 25.9453 24.2364 25.9453 23.9545H25.9453V21.8281C25.9453 21.5462 25.7148 21.3168 25.4315 21.3168H1.56855C1.28526 21.3168 1.05476 21.5462 1.05476 21.8281V23.9545C1.05476 24.2364 1.28526 24.4658 1.56855 24.4658H25.4315ZM25.9453 19.7559C25.9453 20.0379 25.7148 20.2672 25.4315 20.2672H1.56855C1.28526 20.2672 1.05476 20.0378 1.05476 19.7559V17.6295C1.05476 17.3476 1.28526 17.1182 1.56855 17.1182H25.4315C25.7147 17.1182 25.9453 17.3476 25.9453 17.6295V19.7559H25.9453ZM25.4315 16.0685C25.7148 16.0685 25.9453 15.8391 25.9453 15.5572H25.9453V13.4308C25.9453 13.1491 25.7151 12.9198 25.4321 12.9195L25.431 12.9196L25.4293 12.9195H1.56855C1.28526 12.9195 1.05476 13.1489 1.05476 13.4308V15.5572C1.05476 15.8391 1.28526 16.0685 1.56855 16.0685H25.4315Z" fill="black"/>
<path d="M19.2493 10.4461L19.2545 10.4491C19.3327 10.4942 19.418 10.5156 19.5021 10.5156C19.6743 10.5156 19.8417 10.426 19.9337 10.2657C20.0706 10.0272 19.9887 9.72242 19.7507 9.5851L19.7455 9.58211C19.5074 9.44484 19.2033 9.52698 19.0664 9.76553C18.9294 10.0041 19.0113 10.3088 19.2493 10.4461Z" fill="black"/>
<path d="M15.4889 4.51562C15.5558 4.51562 15.6239 4.50157 15.6889 4.47199L15.7072 4.46382C15.9544 4.35428 16.067 4.06256 15.9589 3.81221C15.8508 3.5618 15.5625 3.44771 15.3157 3.55725L15.2882 3.56952C15.0422 3.68159 14.9325 3.97449 15.0431 4.22366C15.1245 4.40697 15.3025 4.51562 15.4889 4.51562Z" fill="black"/>
<path d="M2.50002 14.5156C2.22464 14.5156 2 14.7402 2 15.0156C2 15.291 2.22464 15.5156 2.50002 15.5156C2.77541 15.5156 3 15.291 3 15.0156C3 14.7402 2.77541 14.5156 2.50002 14.5156Z" fill="black"/>
<path d="M2.50002 18.5156C2.22464 18.5156 2 18.7402 2 19.0156C2 19.291 2.22464 19.5156 2.50002 19.5156C2.77541 19.5156 3 19.291 3 19.0156C3 18.7402 2.77541 18.5156 2.50002 18.5156Z" fill="black"/>
<path d="M2.50002 22.5156C2.22464 22.5156 2 22.7402 2 23.0156C2 23.291 2.22464 23.5156 2.50002 23.5156C2.77541 23.5156 3 23.291 3 23.0156C3 22.7403 2.77536 22.5156 2.50002 22.5156Z" fill="black"/>
<path d="M24.5 14.5156C24.2246 14.5156 24 14.7402 24 15.0156C24 15.291 24.2246 15.5156 24.5 15.5156C24.7754 15.5156 25 15.291 25 15.0156C25 14.7402 24.7754 14.5156 24.5 14.5156Z" fill="black"/>
<path d="M24.5 18.5156C24.2246 18.5156 24 18.7402 24 19.0156C24 19.291 24.2246 19.5156 24.5 19.5156C24.7754 19.5156 25 19.291 25 19.0156C25 18.7402 24.7754 18.5156 24.5 18.5156Z" fill="black"/>
<path d="M24.5 22.5156C24.2246 22.5156 24 22.7402 24 23.0156C24 23.291 24.2246 23.5156 24.5 23.5156C24.7754 23.5156 25 23.291 25 23.0156C25 22.7403 24.7754 22.5156 24.5 22.5156Z" fill="black"/>
</svg>
