<svg width="28" height="29" viewBox="0 0 28 29" fill="none" xmlns="http://www.w3.org/2000/svg">
<path d="M12.25 18.875V11.0547C12.25 10.0703 11.4297 9.30469 10.5 9.30469H7.875C5.90625 9.30469 4.375 10.8906 4.375 12.8047V17.125C4.375 19.0938 5.90625 20.625 7.875 20.625H10.5C11.4297 20.625 12.25 19.8594 12.25 18.875ZM9.625 18H7.875C7.38281 18 7 17.6172 7 17.125V12.8047C7 12.3125 7.38281 11.9297 7.875 11.9297H9.625V18ZM14 0.5C6.17969 0.5 0.21875 7.00781 0 14.5V15.375C0 15.8672 0.382812 16.25 0.875 16.25H1.75C2.1875 16.25 2.625 15.8672 2.625 15.375V14.5C2.625 8.26562 7.71094 3.125 14 3.125C20.2344 3.125 25.375 8.26562 25.375 14.5H25.3203C25.3203 14.6641 25.375 23.5781 25.375 23.5781C25.375 24.8906 24.3359 25.875 23.0234 25.875H17.5C17.5 24.4531 16.2969 23.25 14.875 23.25H13.125C11.6484 23.25 10.5 24.4531 10.5 25.875C10.5 27.3516 11.6484 28.5 13.125 28.5H23.0234C25.7578 28.5 28 26.3125 28 23.5781V14.5C27.7266 7.00781 21.7656 0.5 14 0.5ZM20.125 20.625C22.0391 20.625 23.625 19.0938 23.625 17.125V12.8047C23.625 10.8906 22.0391 9.30469 20.125 9.30469H17.5C16.5156 9.30469 15.75 10.0703 15.75 11.0547V18.875C15.75 19.8594 16.5156 20.625 17.5 20.625H20.125ZM18.375 11.9297H20.125C20.5625 11.9297 21 12.3125 21 12.8047V17.125C21 17.6172 20.5625 18 20.125 18H18.375V11.9297Z" fill="#7EB23D"/>
</svg>
