<svg width="16" height="16" viewBox="0 0 16 16" fill="none" xmlns="http://www.w3.org/2000/svg">
<path d="M6 6.5C6 5.96875 5.53125 5.5 5 5.5H4.5C3.375 5.5 2.5 6.40625 2.5 7.5V9C2.5 10.125 3.375 11 4.5 11H5C5.53125 11 6 10.5625 6 10V6.5ZM11.5 11C12.5938 11 13.5 10.125 13.5 9V7.5C13.5 6.40625 12.5938 5.5 11.5 5.5H11C10.4375 5.5 10 5.96875 10 6.5V10C10 10.5625 10.4375 11 11 11H11.5ZM8 0C3.53125 0 0.125 3.71875 0 8V8.5C0 8.78125 0.21875 9 0.5 9H1C1.25 9 1.5 8.78125 1.5 8.5V8C1.5 4.4375 4.40625 1.5 8 1.5C11.5625 1.5 14.5 4.4375 14.5 8H14.4688C14.4688 8.09375 14.5 13.1875 14.5 13.1875C14.5 13.9375 13.9062 14.5 13.1562 14.5H10C10 13.6875 9.3125 13 8.5 13H7.5C6.65625 13 6 13.6875 6 14.5C6 15.3438 6.65625 16 7.5 16H13.1562C14.7188 16 16 14.75 16 13.1875V8C15.8438 3.71875 12.4375 0 8 0Z" fill="#7EB23D"/>
</svg>
