<svg width="20" height="31" viewBox="0 0 20 31" fill="none" xmlns="http://www.w3.org/2000/svg">
<path fill-rule="evenodd" clip-rule="evenodd" d="M15.2941 5.31055V6.27617C17.9375 6.56861 20 8.80713 20 11.5169V29.0755C20 30.0556 19.1995 30.8528 18.2156 30.8528H1.78441C0.800471 30.8528 0 30.0555 0 29.0754V11.5168C0 8.80708 2.06259 6.56856 4.70588 6.27611V5.31049H3.71965C3.39476 5.31049 3.13141 5.0481 3.13141 4.72455V3.08164C3.13141 1.85269 4.13518 0.852783 5.36906 0.852783H14.6309C15.8649 0.852783 16.8686 1.85269 16.8686 3.08164V4.72461C16.8686 5.04816 16.6052 5.31055 16.2804 5.31055H15.2941ZM4.30788 3.08164V4.13861H15.6921V3.08164C15.6921 2.49886 15.2161 2.02466 14.6309 2.02466H5.36906C4.78394 2.02466 4.30788 2.49886 4.30788 3.08164ZM14.1176 5.31049V6.24342H5.88229V5.31049H14.1176ZM16.9979 27.5519H18.8235V26.4973H1.17647V29.0755C1.17647 29.4093 1.44924 29.681 1.78441 29.681H18.2156C18.5508 29.681 18.8235 29.4093 18.8235 29.0755V28.7238H16.9979C16.6731 28.7238 16.4097 28.4615 16.4097 28.1378C16.4097 27.8143 16.6731 27.5519 16.9979 27.5519ZM18.8235 25.3254H1.17641V13.5188H18.8235V25.3254ZM1.17641 12.3469H18.8235V11.5169C18.8235 9.25526 16.9764 7.4153 14.7059 7.4153H5.29406C3.43065 7.4153 1.85312 8.65514 1.34718 10.3499H3.03824C3.36306 10.3499 3.62647 10.6123 3.62647 10.9359C3.62647 11.2595 3.36306 11.5218 3.03824 11.5218H1.17641V12.3469Z" fill="black"/>
<path fill-rule="evenodd" clip-rule="evenodd" d="M13.1848 18.0894C14.6738 18.2713 15.5284 19.1288 15.8412 19.9377C16.1787 20.8106 15.9668 21.7436 15.3139 22.2593C15.1129 22.418 14.6955 22.6654 14.0498 22.6654C13.7573 22.6654 13.4178 22.6146 13.0303 22.4819C12.91 22.675 12.7334 22.8365 12.5161 22.9413L11.1328 23.6929C10.941 23.7974 10.7222 23.8528 10.5007 23.8528C10.2576 23.8528 10.0219 23.7878 9.81777 23.6646L8.42977 22.9104C8.23717 22.8063 8.08089 22.6568 7.97158 22.4812C7.58338 22.6144 7.24327 22.6654 6.95032 22.6654C6.30444 22.6654 5.88723 22.418 5.68616 22.2593C5.03317 21.7436 4.82125 20.8106 5.15885 19.9377C5.47167 19.1288 6.32634 18.2712 7.81524 18.0894C7.97821 16.8309 9.11963 15.8528 10.5 15.8528C11.8803 15.8528 13.0218 16.8309 13.1848 18.0894ZM6.47471 21.3748C6.73828 21.583 7.21916 21.552 7.7945 21.3003V19.2627C7.06416 19.3965 6.52722 19.7751 6.31162 20.3325C6.15226 20.7445 6.21937 21.1731 6.47471 21.3748ZM9.02118 18.3991C9.02118 17.6317 9.68461 17.0073 10.5 17.0073C11.3154 17.0073 11.9787 17.6317 11.9787 18.3991V18.5591H9.02118V18.3991ZM11.9787 19.7136H9.02118V20.5518H11.9787V19.7136ZM11.9789 21.8806C11.9788 21.902 11.9619 21.9114 11.9567 21.9138C11.9436 21.9197 11.9309 21.9261 11.9184 21.9329L10.5189 22.6934C10.5052 22.7008 10.4903 22.6993 10.479 22.6922C10.4681 22.6854 10.457 22.6788 10.4456 22.6726L9.0421 21.9099C9.02578 21.9011 9.024 21.886 9.024 21.88C9.024 21.8619 9.02302 21.844 9.02131 21.8264V21.7064H11.9789V21.8806ZM13.2055 21.3003C13.7808 21.552 14.2616 21.583 14.5253 21.3748C14.7807 21.1731 14.8477 20.7445 14.6884 20.3325C14.4729 19.7751 13.9359 19.3965 13.2055 19.2627V21.3003Z" fill="black"/>
<path d="M4.50583 10.8528H4.49417C4.22129 10.8528 4 11.0767 4 11.3528C4 11.6289 4.22129 11.8528 4.49417 11.8528H4.50583C4.77871 11.8528 5 11.6289 5 11.3528C5 11.0767 4.77871 10.8528 4.50583 10.8528Z" fill="black"/>
<path d="M15.5058 27.8528H15.4942C15.2213 27.8528 15 28.0766 15 28.3528C15 28.6289 15.2213 28.8528 15.4942 28.8528H15.5058C15.7787 28.8528 16 28.6289 16 28.3528C16 28.0767 15.7788 27.8528 15.5058 27.8528Z" fill="black"/>
</svg>
