<svg width="18" height="18" viewBox="0 0 18 18" fill="none" xmlns="http://www.w3.org/2000/svg">
<path d="M9 0.53125C4.18359 0.53125 0.28125 4.46875 0.28125 9.25C0.28125 14.0664 4.18359 17.9688 9 17.9688C13.7812 17.9688 17.7188 14.0664 17.7188 9.25C17.7188 4.46875 13.7812 0.53125 9 0.53125ZM9 16.2812C5.09766 16.2812 1.96875 13.1523 1.96875 9.25C1.96875 5.38281 5.09766 2.21875 9 2.21875C12.8672 2.21875 16.0312 5.38281 16.0312 9.25C16.0312 13.1523 12.8672 16.2812 9 16.2812ZM9 4.39844C8.15625 4.39844 7.52344 5.06641 7.52344 5.875C7.52344 6.71875 8.15625 7.35156 9 7.35156C9.80859 7.35156 10.4766 6.71875 10.4766 5.875C10.4766 5.06641 9.80859 4.39844 9 4.39844ZM10.9688 13.3281V12.4844C10.9688 12.2734 10.7578 12.0625 10.5469 12.0625H10.125V8.54688C10.125 8.33594 9.91406 8.125 9.70312 8.125H7.45312C7.20703 8.125 7.03125 8.33594 7.03125 8.54688V9.39062C7.03125 9.63672 7.20703 9.8125 7.45312 9.8125H7.875V12.0625H7.45312C7.20703 12.0625 7.03125 12.2734 7.03125 12.4844V13.3281C7.03125 13.5742 7.20703 13.75 7.45312 13.75H10.5469C10.7578 13.75 10.9688 13.5742 10.9688 13.3281Z" fill="#7EB23D"/>
</svg>
