<svg width="36" height="35" viewBox="0 0 36 35" fill="none" xmlns="http://www.w3.org/2000/svg">
<path d="M17.7695 0.0625C8.13672 0.0625 0.332031 7.86719 0.332031 17.5C0.332031 27.1328 8.13672 34.9375 17.7695 34.9375C27.4023 34.9375 35.207 27.1328 35.207 17.5C35.207 7.86719 27.4023 0.0625 17.7695 0.0625ZM17.7695 31.5625C9.96484 31.5625 3.70703 25.3047 3.70703 17.5C3.70703 9.76562 9.96484 3.4375 17.7695 3.4375C25.5039 3.4375 31.832 9.76562 31.832 17.5C31.832 25.3047 25.5039 31.5625 17.7695 31.5625ZM22.0586 24.25C22.4805 24.5312 22.9727 24.4609 23.2539 24.0391L24.5898 22.2812C24.8711 21.8594 24.8008 21.3672 24.3789 21.0859L19.7383 17.6406V7.65625C19.7383 7.23438 19.3164 6.8125 18.8945 6.8125H16.6445C16.1523 6.8125 15.8008 7.23438 15.8008 7.65625V19.2578C15.8008 19.4688 15.8711 19.75 16.082 19.8906L22.0586 24.25Z" fill="#264653"/>
</svg>
