<svg width="81" height="80" viewBox="0 0 81 80" fill="none" xmlns="http://www.w3.org/2000/svg">
<g clip-path="url(#clip0_0_203)">
<g filter="url(#filter0_d_0_203)">
<circle cx="40.6523" cy="40" r="40" fill="#7EB23D"/>
</g>
<path d="M50.4961 28.25C45.5195 28.25 41.3086 31.9688 39.832 37.1094C37.8086 33.8828 34.5273 31.75 30.7539 31.75H26.6523V33.0625C26.6523 40.0625 31.6289 45.75 37.8086 45.75H39.3398V51.875C39.3398 52.3672 39.7227 52.75 40.2148 52.75H41.0898C41.5273 52.75 41.9648 52.3672 41.9648 51.875V42.25H43.4414C49.6211 42.25 54.6523 36.5625 54.6523 29.5625V28.25H50.4961ZM37.8086 43.125C33.4883 43.125 29.8789 39.3516 29.332 34.375H30.7539C35.0742 34.375 38.6836 38.2031 39.2305 43.125H37.8086ZM43.4414 39.625H42.0195C42.5664 34.7031 46.1758 30.875 50.4961 30.875H51.918C51.3711 35.8516 47.7617 39.625 43.4414 39.625Z" fill="white"/>
</g>
<defs>
<filter id="filter0_d_0_203" x="-11.3477" y="-10" width="104" height="104" filterUnits="userSpaceOnUse" color-interpolation-filters="sRGB">
<feFlood flood-opacity="0" result="BackgroundImageFix"/>
<feColorMatrix in="SourceAlpha" type="matrix" values="0 0 0 0 0 0 0 0 0 0 0 0 0 0 0 0 0 0 127 0" result="hardAlpha"/>
<feOffset dy="2"/>
<feGaussianBlur stdDeviation="6"/>
<feColorMatrix type="matrix" values="0 0 0 0 0.717647 0 0 0 0 0.741176 0 0 0 0 0.768627 0 0 0 0.503551 0"/>
<feBlend mode="normal" in2="BackgroundImageFix" result="effect1_dropShadow_0_203"/>
<feBlend mode="normal" in="SourceGraphic" in2="effect1_dropShadow_0_203" result="shape"/>
</filter>
<clipPath id="clip0_0_203">
<rect width="80" height="80" fill="white" transform="translate(0.652344)"/>
</clipPath>
</defs>
</svg>
