<svg width="15" height="21" viewBox="0 0 15 21" fill="none" xmlns="http://www.w3.org/2000/svg">
<path d="M7.5 0.5C3.32031 0.5 0 3.89844 0 8C0 10.8125 0.898438 11.6719 5.89844 19.6406C6.64062 20.8125 8.32031 20.8125 9.0625 19.6406C14.0625 11.6719 15 10.8125 15 8C15 3.85938 11.6016 0.5 7.5 0.5ZM7.5 18.625C2.5 10.6562 1.875 10.1484 1.875 8C1.875 4.91406 4.375 2.375 7.5 2.375C10.5859 2.375 13.125 4.91406 13.125 8C13.125 10.1484 12.5 10.5781 7.5 18.625ZM4.375 8C4.375 9.75781 5.74219 11.125 7.5 11.125C9.21875 11.125 10.625 9.75781 10.625 8C10.625 6.28125 9.21875 4.875 7.5 4.875C5.74219 4.875 4.375 6.28125 4.375 8Z" fill="#7EB23D"/>
</svg>
