<svg width="12" height="19" viewBox="0 0 12 19" fill="none" xmlns="http://www.w3.org/2000/svg">
<path d="M6.00004 0C2.69161 0 0 2.69161 0 6C0 7.33251 0.8509 9.50495 2.60118 12.6415C3.83926 14.8599 5.05696 16.7097 5.10812 16.7874L6.00004 18.1393L6.89192 16.7874C6.94312 16.7097 8.1609 14.86 9.39882 12.6415C11.1492 9.50495 12 7.33255 12 6.00004C12 2.69161 9.30843 0 6.00004 0ZM6.00004 9.06965C4.28238 9.06965 2.88988 7.67719 2.88988 5.95949C2.88988 4.24179 4.28238 2.84933 6.00004 2.84933C7.7177 2.84933 9.1102 4.24179 9.1102 5.95949C9.1102 7.67719 7.71766 9.06965 6.00004 9.06965Z" fill="#6D6D6D"/>
</svg>
