<svg width="23" height="18" viewBox="0 0 23 18" fill="none" xmlns="http://www.w3.org/2000/svg">
<path d="M2.19884 5.54832C2.48864 5.75281 3.3622 6.36017 4.81956 7.37008C6.27698 8.37999 7.39346 9.15759 8.16904 9.70294C8.25426 9.76271 8.43529 9.89266 8.71224 10.0929C8.98923 10.2934 9.21939 10.4553 9.40252 10.5789C9.5858 10.7024 9.80736 10.8409 10.0674 10.9943C10.3274 11.1475 10.5725 11.2628 10.8026 11.3391C11.0327 11.416 11.2458 11.4541 11.4418 11.4541H11.4546H11.4675C11.6635 11.4541 11.8767 11.4159 12.1068 11.3391C12.3368 11.2628 12.5821 11.1474 12.8419 10.9943C13.1018 10.8407 13.3233 10.7023 13.5066 10.5789C13.6899 10.4553 13.9198 10.2934 14.1969 10.0929C14.4738 9.89248 14.6551 9.76271 14.7403 9.70294C15.5243 9.15759 17.5188 7.77259 20.7232 5.54805C21.3454 5.11357 21.8651 4.58932 22.2827 3.97565C22.7005 3.36224 22.9093 2.71875 22.9093 2.04552C22.9093 1.48294 22.7067 1.00136 22.3018 0.600822C21.897 0.200199 21.4175 0 20.8637 0H2.04538C1.38917 0 0.884173 0.221558 0.530477 0.664675C0.176826 1.10788 0 1.66187 0 2.32659C0 2.86351 0.234454 3.44535 0.703139 4.07174C1.17178 4.69817 1.67051 5.19041 2.19884 5.54832Z" fill="#D9D9D9"/>
<path d="M21.6304 6.91589C18.8353 8.80778 16.7128 10.2781 15.2641 11.3265C14.7783 11.6843 14.3843 11.9636 14.0816 12.1638C13.779 12.3641 13.3765 12.5686 12.8735 12.7773C12.3708 12.9864 11.9022 13.0906 11.4675 13.0906H11.4544H11.4416C11.0069 13.0906 10.5381 12.9864 10.0353 12.7773C9.53258 12.5686 9.12981 12.3641 8.82725 12.1638C8.52478 11.9636 8.13056 11.6843 7.64482 11.3265C6.49417 10.4828 4.37629 9.01241 1.29109 6.91589C0.805166 6.59224 0.374766 6.22126 -0.000244141 5.80371V15.9541C-0.000244141 16.5169 0.199955 16.9982 0.600578 17.3988C1.00111 17.7995 1.48274 17.9998 2.04527 17.9998H20.8637C21.4261 17.9998 21.9077 17.7995 22.3082 17.3988C22.7089 16.9981 22.9091 16.517 22.9091 15.9541V5.80371C22.5425 6.21262 22.1165 6.5836 21.6304 6.91589Z" fill="#D9D9D9"/>
</svg>
