<svg width="28" height="35" viewBox="0 0 28 35" fill="none" xmlns="http://www.w3.org/2000/svg">
<path fill-rule="evenodd" clip-rule="evenodd" d="M26.27 20.4456C24.5402 22.1973 21.7635 23.3553 20.7366 23.7437V24.9882L21.5466 27.4481C22.7578 27.2315 24.1456 27.6686 25.1833 28.7195C26.7556 30.3118 26.9384 32.7174 25.5909 34.0821C25.0001 34.6803 24.2039 35 23.3212 35C23.2073 35 23.0921 34.9947 22.9756 34.9839C21.9954 34.8937 21.0436 34.4269 20.2956 33.6694C20.1987 33.5707 20.1065 33.4687 20.0191 33.3636C19.388 34.3562 18.3835 34.9996 17.2542 34.9996C16.7502 34.9984 16.2543 34.8698 15.8117 34.6256C15.3812 34.8719 14.8949 35.0008 14.4004 34.9996H7.48823C6.95422 34.999 6.43081 34.8485 5.97618 34.5648C5.36791 34.8536 4.70392 35.0021 4.03212 34.9996C1.80884 34.9996 0 33.4295 0 31.4996C0 29.5697 1.80884 27.9996 4.03212 27.9996C4.22468 27.9999 4.41705 28.012 4.60814 28.0361V11.598C4.60682 10.3422 5.40074 9.22702 6.57769 8.83148L7.75896 8.43271C7.97166 8.36019 8.12374 8.16963 8.14913 7.94381L8.5103 4.65115C8.2493 4.58994 8.06444 4.35458 8.06424 4.08328V0.583326C8.06424 0.261164 8.32214 0 8.64026 0H13.2484C13.5665 0 13.8244 0.261164 13.8244 0.583326V4.08328C13.8242 4.35721 13.6358 4.5941 13.3716 4.65268L13.7397 8.00812C13.7652 8.23408 13.9175 8.42469 14.1304 8.49709L15.3113 8.89572C16.4882 9.29133 17.282 10.4065 17.2805 11.6623V26.6689L19.5846 24.8023V17.4998C19.5846 17.1776 19.8425 16.9165 20.1606 16.9165C20.4787 16.9165 20.7366 17.1776 20.7366 17.4998V20.493C21.3029 19.3676 22.0699 18.1001 23.0119 17.1461C23.8615 16.285 24.8141 15.7141 25.8423 15.4487C26.434 15.2957 27.0615 15.47 27.4933 15.9073C27.9251 16.3446 28.0973 16.9801 27.9462 17.5793C27.6841 18.6205 27.1203 19.5852 26.27 20.4456ZM26.1269 16.5794C25.3024 16.7921 24.528 17.2603 23.8264 17.9709C22.6139 19.1987 21.6907 21.0821 21.1737 22.3071C22.3833 21.7836 24.2431 20.8486 25.4559 19.6208C26.1577 18.9102 26.62 18.1263 26.8301 17.291C26.8827 17.0907 26.8249 16.8773 26.6789 16.7321C26.5725 16.6233 26.428 16.5614 26.2768 16.5597C26.2262 16.5599 26.1759 16.5665 26.1269 16.5794ZM9.21628 1.16665H12.6724V3.49996H9.21628V1.16665ZM8.12386 9.53935L6.94173 9.93842C6.23564 10.1756 5.75933 10.8446 5.76017 11.598V13.4165H16.1285V11.6623C16.1293 10.9091 15.6531 10.2403 14.9472 10.003L13.7654 9.6041C13.1271 9.38678 12.6706 8.81499 12.5945 8.1374L12.2138 4.66661H9.6678L9.29411 8.07272C9.21817 8.75017 8.76197 9.32192 8.12386 9.53935ZM1.72805 32.0829C1.40993 32.0829 1.15203 31.8218 1.15203 31.4996C1.15203 31.1774 1.40993 30.9163 1.72805 30.9163C2.04618 30.9163 2.30407 31.1774 2.30407 31.4996C2.30371 31.8216 2.04603 32.0826 1.72805 32.0829ZM3.45694 31.4996C3.45694 32.3291 2.88185 33.0447 2.07978 33.2131C2.64907 33.6244 3.33287 33.8415 4.03212 33.8329C5.6202 33.8329 6.91221 32.7862 6.91221 31.4996C6.91221 30.213 5.6202 29.1663 4.03212 29.1663C3.33287 29.1577 2.64907 29.3748 2.07978 29.7861C2.88185 29.9545 3.45694 30.6701 3.45694 31.4996ZM7.48823 33.8329C7.35204 33.8325 7.21637 33.8157 7.08408 33.783C7.69408 33.1694 8.06424 32.3716 8.06424 31.4996C8.06424 30.1063 7.12102 28.9008 5.76017 28.3381V14.5832H16.1285V27.0566C14.774 27.6096 13.7981 29.1304 13.7981 30.9163C13.7981 32.0339 14.1805 33.0478 14.7983 33.7859C14.6679 33.817 14.5344 33.8328 14.4004 33.8329H7.48823ZM14.9502 30.9163C14.9502 32.5245 15.9838 33.8329 17.2542 33.8329C18.5247 33.8329 19.5583 32.5245 19.5583 30.9163C19.5583 29.3081 18.5247 27.9996 17.2542 27.9996C15.9838 27.9996 14.9502 29.3081 14.9502 30.9163ZM22.3999 28.5674C23.1122 28.6331 23.8115 28.9799 24.3689 29.5445C25.4922 30.682 25.6748 32.3473 24.7765 33.257C24.3555 33.6833 23.7531 33.8841 23.0801 33.822C22.3677 33.7564 21.6682 33.4091 21.1104 32.8442C20.8959 32.6276 20.71 32.3837 20.5575 32.1186C20.788 31.2308 20.7578 30.2943 20.4705 29.4237C20.5384 29.3189 20.6164 29.2214 20.7036 29.1325C21.1242 28.7062 21.7265 28.5058 22.3999 28.5674ZM18.5522 27.133C19.0916 27.3989 19.5557 27.7987 19.9014 28.2952C20.0712 28.1255 20.2604 27.9771 20.465 27.853L19.8753 26.0612L18.5522 27.133Z" fill="black"/>
<circle cx="9.5" cy="20.5" r="0.5" fill="black"/>
<circle cx="7.5" cy="18.5" r="0.5" fill="black"/>
<circle cx="9.5" cy="16.5" r="0.5" fill="black"/>
</svg>
