<svg width="28" height="37" viewBox="0 0 28 37" fill="none" xmlns="http://www.w3.org/2000/svg">
<path d="M28 31.8691C28 29.9311 26.9074 28.1589 25.1784 27.2926L19.0998 24.2458C18.3145 23.8522 17.8182 23.0472 17.8182 22.1668V19.7759C17.9887 19.5813 18.1847 19.3306 18.3935 19.0346C19.222 17.8621 19.8482 16.5715 20.2828 15.2172C21.0624 14.9767 21.6364 14.2546 21.6364 13.3966V10.8448C21.6364 10.2834 21.3875 9.7814 21 9.43053V5.74138C21 5.74138 21.7554 0 14 0C6.244 0 7 5.74138 7 5.74138V9.43053C6.61245 9.7814 6.36364 10.2834 6.36364 10.8448V13.3966C6.36364 14.0689 6.71618 14.6603 7.24373 15.0022C7.87946 17.7785 9.54545 19.7759 9.54545 19.7759V22.1075C9.54545 22.9579 9.08218 23.7406 8.337 24.1476L2.66 27.2524C1.02009 28.1487 0 29.8718 0 31.7441V33.1724C0 33.1724 0 33.5915 0 33.8103C0 35.5717 6.26818 37 14 37C21.7318 37 28 35.5717 28 33.8103C28 33.5915 28 33.1724 28 33.1724V31.8691Z" fill="#A0CFF8"/>
</svg>
