<svg width="12" height="13" viewBox="0 0 12 13" fill="none" xmlns="http://www.w3.org/2000/svg">
<path d="M11.1562 1.03906L8.95312 0.546875C8.4375 0.429688 7.92188 0.6875 7.73438 1.15625L6.70312 3.54688C6.51562 3.96875 6.63281 4.48438 7.00781 4.78906L7.94531 5.5625C7.28906 6.78125 6.25781 7.78906 5.03906 8.46875L4.26562 7.53125C3.96094 7.15625 3.44531 7.03906 3.02344 7.22656L0.632812 8.23438C0.164062 8.44531 -0.09375 8.96094 0.0234375 9.47656L0.515625 11.6797C0.632812 12.1719 1.07812 12.5 1.57031 12.5C7.3125 12.5 12 7.85938 12 2.09375C12 1.60156 11.6484 1.15625 11.1562 1.03906ZM1.61719 11.375L1.125 9.26562L3.42188 8.28125L4.73438 9.875C7.05469 8.77344 8.25 7.57812 9.35156 5.25781L7.75781 3.94531L8.74219 1.64844L10.875 2.14062C10.8516 7.22656 6.70312 11.3516 1.61719 11.375Z" fill="#264653"/>
</svg>
