<svg width="19" height="18" viewBox="0 0 19 18" fill="none" xmlns="http://www.w3.org/2000/svg">
<path d="M17.6363 14.2371L14.8502 11.4507C14.2953 10.898 13.3763 10.9148 12.802 11.4893L11.3984 12.8926C11.3097 12.8437 11.2179 12.7927 11.1214 12.7385C10.235 12.2474 9.0218 11.5742 7.74517 10.2967C6.46477 9.01641 5.79098 7.80136 5.29833 6.91439C5.24635 6.82043 5.19654 6.72983 5.14735 6.64379L6.08941 5.70313L6.55257 5.23941C7.12772 4.66409 7.14358 3.74536 6.58993 3.19103L3.80382 0.404295C3.25017 -0.149249 2.33076 -0.132456 1.7556 0.442856L0.970378 1.23259L0.991836 1.25389C0.72854 1.58985 0.508521 1.97733 0.344791 2.39519C0.193862 2.79293 0.0998943 3.17248 0.0569273 3.55281C-0.310962 6.60269 1.08275 9.39005 4.86509 13.1724C10.0934 18.4004 14.3068 18.0055 14.4886 17.9862C14.8844 17.9389 15.2638 17.8443 15.6494 17.6946C16.0636 17.5327 16.4508 17.313 16.7866 17.0503L16.8037 17.0655L17.5992 16.2866C18.1732 15.7114 18.1897 14.7923 17.6363 14.2371Z" fill="#6D6D6D"/>
</svg>
