<svg width="82" height="81" viewBox="0 0 82 81" fill="none" xmlns="http://www.w3.org/2000/svg">
<g clip-path="url(#clip0_0_196)">
<g filter="url(#filter0_d_0_196)">
<circle cx="41.0005" cy="40.9028" r="40" fill="#7EB23D"/>
</g>
<path d="M57.3833 43.4653C55.688 42.0435 53.6099 42.5903 52.5708 43.4106L49.2896 45.8716H49.0708C49.0708 43.7935 47.4302 42.1528 45.2974 42.1528H37.4224C35.8911 42.1528 34.3599 42.6997 33.1567 43.6294L31.5708 44.7778H28.1255C27.6333 44.7778 27.2505 45.2153 27.2505 45.6528V46.5278C27.2505 47.02 27.6333 47.4028 28.1255 47.4028H32.5005L34.7427 45.7075C35.5083 45.106 36.438 44.7778 37.4224 44.7778H45.2974C46.8286 44.7778 46.8833 47.02 45.2427 47.02H41.9614C41.5786 47.02 41.2505 47.3481 41.2505 47.731V47.7856C41.2505 48.1685 41.5786 48.4966 41.9614 48.4966H49.3442C49.8911 48.4966 50.3833 48.3325 50.8208 48.0044L54.1567 45.4888C54.5942 45.1606 55.3052 45.1606 55.688 45.4888C56.2896 45.981 56.2349 46.7466 55.688 47.1841L50.1646 51.2856C49.7271 51.6138 49.2349 51.7778 48.688 51.7778H28.1255C27.6333 51.7778 27.2505 52.2153 27.2505 52.6528V53.5278C27.2505 54.02 27.6333 54.4028 28.1255 54.4028H48.688C49.7817 54.4028 50.8755 54.0747 51.7505 53.4185L57.2192 49.2622C58.1489 48.606 58.6958 47.5669 58.6958 46.4185C58.7505 45.3247 58.2583 44.231 57.3833 43.4653ZM33.3755 40.4028H52.6255C53.1177 40.4028 53.5005 40.02 53.5005 39.5278V27.2778C53.5005 26.8403 53.1177 26.4028 52.6255 26.4028H33.3755C32.8833 26.4028 32.5005 26.8403 32.5005 27.2778V39.5278C32.5005 40.02 32.8833 40.4028 33.3755 40.4028ZM35.1255 29.0278H39.5005V35.1528L43.0005 33.4028L46.5005 35.1528V29.0278H50.8755V37.7778H35.1255V29.0278Z" fill="white"/>
</g>
<defs>
<filter id="filter0_d_0_196" x="-10.9995" y="-9.09717" width="104" height="104" filterUnits="userSpaceOnUse" color-interpolation-filters="sRGB">
<feFlood flood-opacity="0" result="BackgroundImageFix"/>
<feColorMatrix in="SourceAlpha" type="matrix" values="0 0 0 0 0 0 0 0 0 0 0 0 0 0 0 0 0 0 127 0" result="hardAlpha"/>
<feOffset dy="2"/>
<feGaussianBlur stdDeviation="6"/>
<feColorMatrix type="matrix" values="0 0 0 0 0.717647 0 0 0 0 0.741176 0 0 0 0 0.768627 0 0 0 0.503551 0"/>
<feBlend mode="normal" in2="BackgroundImageFix" result="effect1_dropShadow_0_196"/>
<feBlend mode="normal" in="SourceGraphic" in2="effect1_dropShadow_0_196" result="shape"/>
</filter>
<clipPath id="clip0_0_196">
<rect width="81" height="81" fill="white" transform="translate(0.652344)"/>
</clipPath>
</defs>
</svg>
