<svg width="19" height="19" viewBox="0 0 19 19" fill="none" xmlns="http://www.w3.org/2000/svg">
<path d="M18.2539 15.8242L14.7383 12.3086C14.5625 12.168 14.3516 12.0625 14.1406 12.0625H13.5781C14.5273 10.832 15.125 9.28516 15.125 7.5625C15.125 3.55469 11.8203 0.25 7.8125 0.25C3.76953 0.25 0.5 3.55469 0.5 7.5625C0.5 11.6055 3.76953 14.875 7.8125 14.875C9.5 14.875 11.0469 14.3125 12.3125 13.3281V13.9258C12.3125 14.1367 12.3828 14.3477 12.5586 14.5234L16.0391 18.0039C16.3906 18.3555 16.918 18.3555 17.2344 18.0039L18.2188 17.0195C18.5703 16.7031 18.5703 16.1758 18.2539 15.8242ZM7.8125 12.0625C5.31641 12.0625 3.3125 10.0586 3.3125 7.5625C3.3125 5.10156 5.31641 3.0625 7.8125 3.0625C10.2734 3.0625 12.3125 5.10156 12.3125 7.5625C12.3125 10.0586 10.2734 12.0625 7.8125 12.0625Z" fill="white"/>
</svg>
