<svg width="22" height="28" viewBox="0 0 22 28" fill="none" xmlns="http://www.w3.org/2000/svg">
<path fill-rule="evenodd" clip-rule="evenodd" d="M21.3179 23.7985C21.3899 24.0063 21.4773 24.2195 21.5619 24.4259L21.5634 24.4295C21.9422 25.353 22.4136 26.5024 21.3388 27.3528C21.0216 27.6037 20.6356 27.7309 20.1915 27.7309C19.6595 27.7309 19.1143 27.5531 18.5871 27.3811C18.4375 27.3323 18.2961 27.2862 18.1548 27.2439C17.9151 27.172 17.6471 27.1371 17.3355 27.1371C16.7798 27.1371 16.123 27.2478 15.3624 27.376C14.2249 27.5678 12.8093 27.8064 11 27.8064C9.19091 27.8064 7.77515 27.5678 6.63764 27.376L6.63594 27.3757C5.87609 27.2476 5.21979 27.1371 4.66449 27.1371C4.35288 27.1371 4.08489 27.172 3.8452 27.2438C3.70398 27.2861 3.5626 27.3322 3.41295 27.381L3.41285 27.3811C2.88561 27.553 2.34046 27.7308 1.80846 27.7308C1.36442 27.7308 0.978425 27.6036 0.661205 27.3526C-0.413511 26.5024 0.0578402 25.3531 0.436601 24.4295L0.436646 24.4294L0.43734 24.4277C0.522191 24.2208 0.60991 24.0069 0.682105 23.7985C1.19129 22.328 1.02337 20.2784 0.845596 18.1083L0.845586 18.1082L0.845532 18.1075C0.744715 16.8767 0.640462 15.6038 0.640462 14.3064C0.640462 13.009 0.744698 11.7363 0.845508 10.5055L0.845586 10.5045L0.845599 10.5044C1.02338 8.33432 1.19129 6.28465 0.682105 4.81424C0.609903 4.6058 0.522173 4.3919 0.437313 4.185L0.436646 4.18338C0.057825 3.25979 -0.413606 2.11034 0.661205 1.26005C0.978373 1.00914 1.36437 0.881889 1.80846 0.881889C2.34055 0.881889 2.88578 1.05971 3.413 1.23168C3.5626 1.28046 3.70398 1.32655 3.8452 1.36889C4.08495 1.44072 4.35293 1.47563 4.66449 1.47563C5.22021 1.47563 5.87701 1.36494 6.63759 1.23674C7.7751 1.045 9.19076 0.806374 11 0.806374C12.8091 0.806374 14.2248 1.045 15.3624 1.23684C16.1229 1.36504 16.7798 1.47573 17.3355 1.47573C17.6471 1.47573 17.9151 1.44082 18.1548 1.369C18.2951 1.32693 18.4355 1.28117 18.584 1.23276L18.587 1.23178C19.1143 1.05976 19.6595 0.881942 20.1915 0.881942C20.6356 0.881942 21.0216 1.00914 21.3388 1.2601C22.4135 2.11037 21.9422 3.25979 21.5634 4.18336L21.5634 4.18343L21.5623 4.18597C21.4776 4.39259 21.39 4.60611 21.3179 4.81429C20.8088 6.28447 20.9766 8.33373 21.1543 10.5034L21.1544 10.5045L21.1545 10.5055C21.2553 11.7364 21.3595 13.009 21.3595 14.3064C21.3595 15.6037 21.2553 16.8764 21.1545 18.1072L21.1544 18.1082L21.1544 18.1083C20.9766 20.2783 20.8087 22.328 21.3179 23.7985ZM20.312 14.3064C20.312 13.0521 20.2096 11.8011 20.1104 10.5912C19.9233 8.30657 19.7465 6.14863 20.3288 4.46704C20.4105 4.23089 20.5039 4.00323 20.5942 3.78306L20.5951 3.78086C21.0192 2.74679 21.0833 2.39932 20.6915 2.08935C20.5597 1.98509 20.4009 1.93658 20.1916 1.93658C19.825 1.93658 19.3805 2.08154 18.9099 2.23505L18.9067 2.23612C18.7588 2.28436 18.6059 2.33421 18.4537 2.37981C18.1156 2.48111 17.7498 2.53037 17.3356 2.53037C16.6928 2.53037 15.9963 2.41297 15.1899 2.27706L15.1894 2.27698L15.1894 2.27697C14.0901 2.09166 12.722 1.86106 11 1.86106C9.27781 1.86106 7.90983 2.09167 6.81061 2.27703C6.00393 2.41303 5.30737 2.53042 4.66449 2.53042C4.25016 2.53042 3.88443 2.48116 3.54636 2.37986C3.39537 2.33464 3.24382 2.28523 3.09701 2.23737L3.09007 2.23511C2.61953 2.0816 2.17507 1.93663 1.80846 1.93663C1.59909 1.93663 1.44027 1.9852 1.30848 2.0894C0.91672 2.39932 0.980835 2.74684 1.40497 3.78091C1.49559 4.00176 1.58924 4.2301 1.67127 4.46709C2.04245 5.53907 2.10499 6.8048 2.05324 8.17337H3.65348C3.94273 8.17337 4.1773 8.40946 4.1773 8.70071C4.1773 8.99196 3.94273 9.22805 3.65348 9.22805H1.99525C1.9645 9.67545 1.92731 10.1307 1.8896 10.5913C1.79044 11.8011 1.68798 13.0521 1.68798 14.3064C1.68798 15.5607 1.79044 16.8117 1.8896 18.0216C2.07676 20.3062 2.25349 22.4642 1.67122 24.1458C1.58946 24.382 1.4961 24.6096 1.40581 24.8298L1.40491 24.832C0.980783 25.866 0.916668 26.2135 1.30843 26.5235C1.44017 26.6277 1.59904 26.6762 1.80841 26.6762C2.17497 26.6762 2.61948 26.5312 3.09002 26.3777L3.09524 26.376C3.24259 26.328 3.39478 26.2784 3.54631 26.233C3.88438 26.1317 4.25016 26.0824 4.66444 26.0824C5.30732 26.0824 6.00399 26.1998 6.81061 26.3358L6.8114 26.336C7.91059 26.5212 9.27839 26.7517 11 26.7517C12.7222 26.7517 14.0902 26.5211 15.1894 26.3357L15.1904 26.3355C15.9966 26.1997 16.6929 26.0823 17.3355 26.0823C17.7497 26.0823 18.1155 26.1316 18.4536 26.2329C18.6058 26.2785 18.7587 26.3284 18.9067 26.3766L18.91 26.3777L18.9104 26.3778C19.3808 26.5312 19.825 26.6761 20.1914 26.6761C20.4008 26.6761 20.5597 26.6276 20.6914 26.5234C21.0833 26.2134 21.0191 25.866 20.5951 24.8319L20.5938 24.8288C20.5036 24.6089 20.4104 24.3816 20.3288 24.1458C19.9576 23.0737 19.8951 21.8079 19.9468 20.4392H18.3465C18.0572 20.4392 17.8227 20.2031 17.8227 19.9119C17.8227 19.6206 18.0572 19.3845 18.3465 19.3845H20.0048C20.0355 18.9372 20.0727 18.482 20.1104 18.0215C20.2096 16.8117 20.312 15.5607 20.312 14.3064Z" fill="black"/>
<path d="M5.50581 7.80637H5.49419C5.2213 7.80637 5 8.03022 5 8.30637C5 8.58252 5.2213 8.80637 5.49419 8.80637H5.50581C5.7787 8.80637 6 8.58252 6 8.30637C6 8.03022 5.7787 7.80637 5.50581 7.80637Z" fill="black"/>
<path d="M16.5058 18.8064H16.4942C16.2213 18.8064 16 19.0302 16 19.3064C16 19.5825 16.2213 19.8064 16.4942 19.8064H16.5058C16.7787 19.8064 17 19.5825 17 19.3064C17 19.0302 16.7788 18.8064 16.5058 18.8064Z" fill="black"/>
<path fill-rule="evenodd" clip-rule="evenodd" d="M9.66405 9.85827C10.1927 9.99841 10.6208 10.4171 10.8387 11.007C11.0368 11.5436 11.053 12.1824 10.8842 12.8056C10.5651 13.9836 9.68227 14.8064 8.73747 14.8064C8.6022 14.8064 8.46774 14.7889 8.3379 14.7545C7.28188 14.4746 6.74598 13.18 7.11779 11.8072C7.43689 10.6291 8.31964 9.80637 9.26449 9.80637C9.39976 9.80637 9.53421 9.82384 9.66405 9.85827ZM8.73747 13.8025C9.14348 13.8025 9.69084 13.3324 9.90394 12.5457C10.0175 12.1263 10.0108 11.691 9.88547 11.3514C9.8251 11.1878 9.68181 10.9022 9.40148 10.8279C9.35719 10.8162 9.31117 10.8102 9.26454 10.8102C8.85848 10.8102 8.31111 11.2803 8.09801 12.067C7.86203 12.9383 8.17346 13.6717 8.60052 13.7849C8.64482 13.7966 8.69084 13.8025 8.73747 13.8025Z" fill="black"/>
<path fill-rule="evenodd" clip-rule="evenodd" d="M5 17.8064C5 16.6849 6.31775 15.8064 7.99994 15.8064C9.68219 15.8064 11 16.6849 11 17.8064C11 18.9279 9.68219 19.8064 7.99994 19.8064C6.31775 19.8064 5 18.9279 5 17.8064ZM6.18824 17.8063C6.18824 18.2599 6.93225 18.7653 7.99994 18.7653C9.06763 18.7653 9.81176 18.2599 9.81176 17.8063C9.81176 17.3527 9.06769 16.8473 7.99994 16.8473C6.93225 16.8473 6.18824 17.3527 6.18824 17.8063Z" fill="black"/>
<path fill-rule="evenodd" clip-rule="evenodd" d="M14.7354 11.8064C15.6803 11.8064 16.5631 12.7937 16.8822 14.2073C17.254 15.8547 16.7181 17.4082 15.6621 17.7441C15.5323 17.7854 15.3979 17.8064 15.2627 17.8064H15.2625C14.3177 17.8063 13.4349 16.8189 13.1159 15.4053C12.947 14.6576 12.9632 13.8911 13.1613 13.2472C13.3791 12.5392 13.8072 12.0368 14.3359 11.8687C14.4658 11.8273 14.6002 11.8064 14.7354 11.8064ZM15.2627 16.6018C15.3092 16.6018 15.3552 16.5946 15.3995 16.5806C15.8265 16.4447 16.138 15.5647 15.902 14.5191C15.6889 13.5751 15.1415 13.011 14.7354 13.011C14.6888 13.011 14.6428 13.0182 14.5985 13.0322C14.3181 13.1214 14.1749 13.4641 14.1145 13.6605C13.9891 14.0679 13.9824 14.5902 14.096 15.0936C14.3091 16.0376 14.8565 16.6017 15.2626 16.6018H15.2627Z" fill="black"/>
</svg>
