<svg width="37" height="33" viewBox="0 0 37 33" fill="none" xmlns="http://www.w3.org/2000/svg">
<path d="M31.4258 0.75C25.0273 0.75 19.6133 5.53125 17.7148 12.1406C15.1133 7.99219 10.8945 5.25 6.04297 5.25H0.769531V6.9375C0.769531 15.9375 7.16797 23.25 15.1133 23.25H17.082V31.125C17.082 31.7578 17.5742 32.25 18.207 32.25H19.332C19.8945 32.25 20.457 31.7578 20.457 31.125V18.75H22.3555C30.3008 18.75 36.7695 11.4375 36.7695 2.4375V0.75H31.4258ZM15.1133 19.875C9.55859 19.875 4.91797 15.0234 4.21484 8.625H6.04297C11.5977 8.625 16.2383 13.5469 16.9414 19.875H15.1133ZM22.3555 15.375H20.5273C21.2305 9.04688 25.8711 4.125 31.4258 4.125H33.2539C32.5508 10.5234 27.9102 15.375 22.3555 15.375Z" fill="#264653"/>
</svg>
