<svg width="22" height="17" viewBox="0 0 22 17" fill="none" xmlns="http://www.w3.org/2000/svg">
<path d="M20.7031 6H18.1367L13.6016 0.691406C13.2852 0.339844 12.7578 0.304688 12.4062 0.585938C12.0547 0.902344 12.0195 1.42969 12.3008 1.78125L15.9219 6H6.04297L9.66406 1.78125C9.94531 1.42969 9.91016 0.902344 9.55859 0.585938C9.20703 0.304688 8.67969 0.339844 8.36328 0.691406L3.82812 6H1.29688C1.05078 6 0.875 6.21094 0.875 6.42188V7.26562C0.875 7.51172 1.05078 7.6875 1.29688 7.6875H1.92969L2.91406 14.6836C3.01953 15.5273 3.72266 16.125 4.56641 16.125H17.3984C18.2422 16.125 18.9453 15.5273 19.0508 14.6836L20.0352 7.6875H20.7031C20.9141 7.6875 21.125 7.51172 21.125 7.26562V6.42188C21.125 6.21094 20.9141 6 20.7031 6ZM17.3984 14.4375H4.56641L3.65234 7.6875H18.3125L17.3984 14.4375ZM11.8438 9.65625C11.8438 9.19922 11.457 8.8125 11 8.8125C10.5078 8.8125 10.1562 9.19922 10.1562 9.65625V12.4688C10.1562 12.9609 10.5078 13.3125 11 13.3125C11.457 13.3125 11.8438 12.9609 11.8438 12.4688V9.65625ZM15.7812 9.65625C15.7812 9.19922 15.3945 8.8125 14.9375 8.8125C14.4453 8.8125 14.0938 9.19922 14.0938 9.65625V12.4688C14.0938 12.9609 14.4453 13.3125 14.9375 13.3125C15.3945 13.3125 15.7812 12.9609 15.7812 12.4688V9.65625ZM7.90625 9.65625C7.90625 9.19922 7.51953 8.8125 7.0625 8.8125C6.57031 8.8125 6.21875 9.19922 6.21875 9.65625V12.4688C6.21875 12.9609 6.57031 13.3125 7.0625 13.3125C7.51953 13.3125 7.90625 12.9609 7.90625 12.4688V9.65625Z" fill="#264653"/>
</svg>
