<svg width="18" height="15" viewBox="0 0 18 15" fill="none" xmlns="http://www.w3.org/2000/svg">
<path d="M17.625 6H15.3438L11.3125 1.28125C11.0312 0.96875 10.5625 0.9375 10.25 1.1875C9.9375 1.46875 9.90625 1.9375 10.1562 2.25L13.375 6H4.59375L7.8125 2.25C8.0625 1.9375 8.03125 1.46875 7.71875 1.1875C7.40625 0.9375 6.9375 0.96875 6.65625 1.28125L2.625 6H0.375C0.15625 6 0 6.1875 0 6.375V7.125C0 7.34375 0.15625 7.5 0.375 7.5H0.9375L1.8125 13.7188C1.90625 14.4688 2.53125 15 3.28125 15H14.6875C15.4375 15 16.0625 14.4688 16.1562 13.7188L17.0312 7.5H17.625C17.8125 7.5 18 7.34375 18 7.125V6.375C18 6.1875 17.8125 6 17.625 6ZM14.6875 13.5H3.28125L2.46875 7.5H15.5L14.6875 13.5ZM9.75 9.25C9.75 8.84375 9.40625 8.5 9 8.5C8.5625 8.5 8.25 8.84375 8.25 9.25V11.75C8.25 12.1875 8.5625 12.5 9 12.5C9.40625 12.5 9.75 12.1875 9.75 11.75V9.25ZM13.25 9.25C13.25 8.84375 12.9062 8.5 12.5 8.5C12.0625 8.5 11.75 8.84375 11.75 9.25V11.75C11.75 12.1875 12.0625 12.5 12.5 12.5C12.9062 12.5 13.25 12.1875 13.25 11.75V9.25ZM6.25 9.25C6.25 8.84375 5.90625 8.5 5.5 8.5C5.0625 8.5 4.75 8.84375 4.75 9.25V11.75C4.75 12.1875 5.0625 12.5 5.5 12.5C5.90625 12.5 6.25 12.1875 6.25 11.75V9.25Z" fill="white"/>
</svg>
