<svg width="23" height="29" viewBox="0 0 23 29" fill="none" xmlns="http://www.w3.org/2000/svg">
<path fill-rule="evenodd" clip-rule="evenodd" d="M22.116 18.4069C21.9301 20.6573 21.7546 22.7829 22.2869 24.3078C22.3626 24.5245 22.4545 24.747 22.5435 24.9621L22.5435 24.9623C22.9395 25.92 23.4323 27.1119 22.3087 27.9937C21.9772 28.2539 21.5737 28.3859 21.1094 28.3859C20.5532 28.3859 19.9834 28.2016 19.4322 28.0232L19.427 28.0215C19.2723 27.9715 19.1261 27.9242 18.98 27.8808C18.7293 27.8063 18.4492 27.7701 18.1234 27.7701C17.5424 27.7701 16.8557 27.8848 16.0607 28.0178C14.8714 28.2167 13.3914 28.4641 11.5 28.4641C9.60864 28.4641 8.12858 28.2167 6.93937 28.0178C6.14422 27.8849 5.45751 27.7701 4.87654 27.7701C4.5507 27.7701 4.27054 27.8063 4.02 27.8807C3.8722 27.9246 3.72429 27.9725 3.56778 28.0231C3.01665 28.2015 2.44674 28.3858 1.89058 28.3858C1.42641 28.3858 1.02293 28.2539 0.691287 27.9937C-0.432267 27.112 0.0604345 25.9201 0.456355 24.9623L0.456413 24.9621C0.545401 24.747 0.637347 24.5246 0.713083 24.3078C1.24542 22.7828 1.06991 20.6571 0.88405 18.4066C0.778578 17.13 0.669602 15.8099 0.669602 14.4641C0.669602 13.1184 0.778578 11.7983 0.88405 10.5216C1.06991 8.27108 1.24542 6.14538 0.713083 4.62042C0.637347 4.40358 0.545401 4.18117 0.456413 3.96603C0.0604279 3.00829 -0.432376 1.81637 0.691287 0.934592C1.02287 0.674389 1.42641 0.542428 1.89069 0.542428C2.44696 0.542428 3.01692 0.726834 3.56805 0.90517L3.56908 0.905502C3.72515 0.955965 3.87263 1.00365 4.01995 1.04747C4.27059 1.12195 4.55076 1.15815 4.87648 1.15815C5.45745 1.15815 6.14411 1.04337 6.93926 0.91042C8.12847 0.711576 9.60847 0.464115 11.5 0.464115C13.3913 0.464115 14.8714 0.711576 16.0607 0.910475L16.0629 0.910851C16.8572 1.04358 17.5431 1.15821 18.1235 1.15821C18.4493 1.15821 18.7294 1.12201 18.98 1.04752C19.1273 1.00371 19.2747 0.95604 19.4307 0.905589L19.4318 0.905225L19.4326 0.904972C19.9836 0.726714 20.5533 0.542428 21.1093 0.542428C21.5736 0.542428 21.9771 0.674389 22.3087 0.934592C23.4324 1.81635 22.9396 3.00829 22.5436 3.96602L22.5436 3.96608C22.4546 4.18117 22.3626 4.40364 22.2869 4.62042C21.7546 6.14511 21.9301 8.27026 22.1159 10.5203L22.116 10.5215L22.1161 10.5225C22.2214 11.7989 22.3304 13.1187 22.3304 14.4641C22.3304 15.8095 22.2214 17.1293 22.1161 18.4057L22.116 18.4068L22.116 18.4069ZM21.2352 14.4641C21.2352 13.1633 21.1281 11.866 21.0245 10.6113C20.8288 8.24204 20.644 6.00418 21.2528 4.2603C21.3385 4.01454 21.4365 3.77763 21.5312 3.5486C21.9746 2.47629 22.0416 2.11595 21.632 1.79455C21.4943 1.68649 21.3282 1.63618 21.1093 1.63618C20.7261 1.63618 20.2613 1.78651 19.7694 1.94571L19.7642 1.94739C19.6101 1.99723 19.4509 2.04872 19.2924 2.09583C18.939 2.20094 18.5566 2.25196 18.1235 2.25196C17.4516 2.25196 16.7235 2.13023 15.8804 1.9893L15.8798 1.98919L15.8798 1.98918C14.7305 1.79701 13.3002 1.55787 11.5 1.55787C9.69949 1.55787 8.26932 1.79701 7.12014 1.98919C6.2768 2.13022 5.54858 2.25196 4.87648 2.25196C4.44337 2.25196 4.06096 2.20088 3.70753 2.09583C3.54966 2.04893 3.39122 1.99769 3.23772 1.94805L3.2305 1.94571L3.23008 1.94557C2.7383 1.78648 2.27386 1.63623 1.89069 1.63623C1.6718 1.63623 1.50571 1.68654 1.36798 1.79461C0.958417 2.11601 1.02539 2.47634 1.46874 3.5486L1.47105 3.55418C1.56502 3.78153 1.66215 4.01653 1.74721 4.26036C2.13525 5.37199 2.20064 6.6846 2.14654 8.10385H3.81952C4.12191 8.10385 4.36714 8.34869 4.36714 8.65072C4.36714 8.95276 4.12191 9.1976 3.81952 9.1976H2.08591C2.05382 9.66162 2.01489 10.1339 1.97546 10.6115C1.87185 11.8661 1.76473 13.1634 1.76473 14.4641C1.76473 15.7648 1.87185 17.0622 1.97546 18.3168C2.17112 20.6861 2.35589 22.9239 1.74716 24.6678C1.66198 24.9119 1.5647 25.1473 1.47061 25.3749L1.46869 25.3796C1.02534 26.4519 0.958362 26.8122 1.36793 27.1336C1.50565 27.2417 1.67169 27.2921 1.89052 27.2921C2.27369 27.2921 2.73835 27.1418 3.23017 26.9826C3.38597 26.9322 3.54708 26.8801 3.70747 26.8324C4.06091 26.7274 4.44337 26.6763 4.87648 26.6763C5.548 26.6763 6.27562 26.7979 7.11804 26.9387L7.12019 26.9391C8.26938 27.1313 9.6996 27.3704 11.4999 27.3704C13.3004 27.3704 14.7306 27.1313 15.8798 26.9391L15.8817 26.9388C16.7242 26.7979 17.4519 26.6763 18.1234 26.6763C18.5565 26.6763 18.9389 26.7273 19.2924 26.8325C19.4504 26.8794 19.6091 26.9307 19.7628 26.9804L19.7699 26.9827L19.7705 26.9829C20.262 27.1419 20.7263 27.2921 21.1093 27.2921C21.3282 27.2921 21.4943 27.2417 21.632 27.1336C22.0416 26.8122 21.9746 26.4519 21.5312 25.3795C21.4364 25.1504 21.3385 24.9136 21.2527 24.6678C20.8646 23.5561 20.7992 22.2434 20.8534 20.8241H19.1804C18.8779 20.8241 18.6328 20.5792 18.6328 20.2772C18.6328 19.9751 18.8779 19.7303 19.1804 19.7303H20.914C20.9461 19.2664 20.985 18.7943 21.0245 18.3168C21.1281 17.0622 21.2352 15.7648 21.2352 14.4641Z" fill="black"/>
<path d="M6.01166 7.46412H5.98834C5.44258 7.46412 5 7.91182 5 8.46412C5 9.01642 5.44258 9.46412 5.98834 9.46412H6.01166C6.55742 9.46412 7 9.01642 7 8.46412C7 7.91182 6.55742 7.46412 6.01166 7.46412Z" fill="black"/>
<path d="M17.0116 18.4641H16.9884C16.4426 18.4641 16 18.9118 16 19.4641C16 20.0164 16.4426 20.4641 16.9884 20.4641H17.0116C17.5574 20.4641 18 20.0164 18 19.4641C18 18.9118 17.5574 18.4641 17.0116 18.4641Z" fill="black"/>
<path fill-rule="evenodd" clip-rule="evenodd" d="M15.7855 13.4519C16.4622 13.4519 17.1298 13.6269 17.7162 13.9581C17.8919 14.0574 18.0001 14.241 18 14.4398C17.9988 15.7859 17.2601 17.0398 16.0721 17.712C15.4863 18.0435 14.8209 18.2187 14.1478 18.2187C13.7809 18.2187 13.4167 18.1668 13.0666 18.0669V19.9087C13.0666 20.2155 12.8129 20.4641 12.5 20.4641C12.1871 20.4641 11.9334 20.2155 11.9334 19.9087V18.0669C11.5833 18.1668 11.2191 18.2187 10.8522 18.2187H10.8521C10.179 18.2187 9.51363 18.0435 8.92789 17.712C7.73991 17.0396 7.00113 15.7858 7 14.4398C6.99983 14.241 7.10805 14.0574 7.28375 13.9581C7.87012 13.6269 8.53779 13.4519 9.21447 13.4519C9.61137 13.4519 10.0055 13.5133 10.3823 13.6313C10.3214 13.3647 10.2892 13.0901 10.2892 12.8113C10.2892 11.4668 11.0276 10.2128 12.2162 9.53876C12.3918 9.43923 12.6081 9.43923 12.7837 9.53876C13.9724 10.2127 14.7108 11.4667 14.7108 12.8113C14.7108 13.09 14.6786 13.3647 14.6177 13.6313C14.9945 13.5133 15.3886 13.4519 15.7855 13.4519ZM9.49442 16.75C9.90815 16.9842 10.3776 17.1079 10.852 17.108C11.2165 17.108 11.5772 17.0361 11.9116 16.8984C11.805 16.0776 11.3119 15.3392 10.572 14.9205C10.1582 14.6864 9.68882 14.5626 9.21436 14.5626C8.84998 14.5626 8.48918 14.6344 8.15477 14.7721C8.26141 15.593 8.75445 16.3313 9.49442 16.75ZM12.4999 14.9375C11.8281 14.4365 11.4223 13.6488 11.4223 12.8114C11.4224 11.974 11.8281 11.1863 12.4999 10.6854C13.1718 11.1863 13.5776 11.974 13.5776 12.8114C13.5776 13.6488 13.1718 14.4365 12.4999 14.9375ZM14.1478 17.108C14.6222 17.108 15.0917 16.9842 15.5055 16.75C16.2454 16.3313 16.7384 15.593 16.8451 14.7722C16.5107 14.6344 16.15 14.5626 15.7855 14.5626C15.3111 14.5626 14.8417 14.6864 14.4279 14.9206C13.688 15.3393 13.1949 16.0776 13.0882 16.8984C13.4227 17.0361 13.7834 17.108 14.1478 17.108Z" fill="black"/>
</svg>
