<svg width="81" height="80" viewBox="0 0 81 80" fill="none" xmlns="http://www.w3.org/2000/svg">
<g clip-path="url(#clip0_0_210)">
<g filter="url(#filter0_d_0_210)">
<circle cx="40.6523" cy="40" r="40" fill="#7EB23D"/>
</g>
<path d="M54.332 31.8594L49.7383 27.3203C49.2461 26.8281 48.5898 26.5 47.9336 26.5H36.7227C35.3008 26.5547 34.1523 27.7031 34.1523 29.1797V33.5H36.7227V29.1797H45.4727V34.8672C45.4727 35.5781 46.0742 36.1797 46.7852 36.1797H52.5273V51.9297H39.4023V54.5H52.4727C53.9492 54.5 55.1523 53.3516 55.1523 51.9297V33.7188C55.1523 33.0625 54.8242 32.3516 54.332 31.8594ZM48.0977 33.5547V29.3438L52.3086 33.5547H48.0977ZM40.6602 45.0391C41.043 44.6016 41.207 44 41.0977 43.4531C40.7695 42.3047 40.7695 42.4688 41.0977 41.375C41.207 40.7734 41.043 40.1719 40.6602 39.7891C39.8398 38.9688 39.8945 39.0781 39.6211 37.9844C39.457 37.3828 39.0195 36.9453 38.4727 36.7812C37.3789 36.5078 37.543 36.5625 36.7227 35.7422C36.2852 35.3594 35.6836 35.1953 35.1367 35.3594C34.043 35.6328 34.207 35.6328 33.1133 35.3594C32.5664 35.1953 31.9648 35.3594 31.5273 35.7422C30.707 36.5625 30.8711 36.5078 29.7773 36.7812C29.2305 36.9453 28.793 37.3828 28.6289 37.9844C28.3008 39.0781 28.4102 38.9688 27.5898 39.7891C27.207 40.1719 27.043 40.7734 27.1523 41.375C27.4805 42.4688 27.4805 42.3047 27.1523 43.4531C27.043 44 27.207 44.6016 27.5898 45.0391C28.4102 45.8594 28.3008 45.6953 28.6289 46.8438C28.793 47.3906 29.2305 47.8281 29.7773 47.9922C30.543 48.2109 30.3789 48.1562 30.5977 48.2656V54.5L34.0977 52.75L37.5977 54.5V48.2656C37.8711 48.1562 37.707 48.2109 38.4727 47.9922C39.0195 47.8281 39.457 47.3906 39.6211 46.8438C39.9492 45.6953 39.8398 45.8594 40.6602 45.0391ZM34.1523 45.75C32.1836 45.75 30.6523 44.2188 30.6523 42.25C30.6523 40.3359 32.1836 38.75 34.1523 38.75C36.0664 38.75 37.6523 40.3359 37.6523 42.25C37.6523 44.2188 36.0664 45.75 34.1523 45.75Z" fill="white"/>
</g>
<defs>
<filter id="filter0_d_0_210" x="-11.3477" y="-10" width="104" height="104" filterUnits="userSpaceOnUse" color-interpolation-filters="sRGB">
<feFlood flood-opacity="0" result="BackgroundImageFix"/>
<feColorMatrix in="SourceAlpha" type="matrix" values="0 0 0 0 0 0 0 0 0 0 0 0 0 0 0 0 0 0 127 0" result="hardAlpha"/>
<feOffset dy="2"/>
<feGaussianBlur stdDeviation="6"/>
<feColorMatrix type="matrix" values="0 0 0 0 0.717647 0 0 0 0 0.741176 0 0 0 0 0.768627 0 0 0 0.503551 0"/>
<feBlend mode="normal" in2="BackgroundImageFix" result="effect1_dropShadow_0_210"/>
<feBlend mode="normal" in="SourceGraphic" in2="effect1_dropShadow_0_210" result="shape"/>
</filter>
<clipPath id="clip0_0_210">
<rect width="80" height="80" fill="white" transform="translate(0.652344)"/>
</clipPath>
</defs>
</svg>
