<svg width="13" height="15" viewBox="0 0 13 15" fill="none" xmlns="http://www.w3.org/2000/svg">
<path d="M11.8125 1.83374H8.53125L8.25781 1.34155C8.14844 1.1228 7.92969 0.95874 7.68359 0.95874H4.53906C4.29297 0.95874 4.07422 1.1228 3.96484 1.34155L3.71875 1.83374H0.4375C0.191406 1.83374 0 2.05249 0 2.27124V3.14624C0 3.39233 0.191406 3.58374 0.4375 3.58374H11.8125C12.0312 3.58374 12.25 3.39233 12.25 3.14624V2.27124C12.25 2.05249 12.0312 1.83374 11.8125 1.83374ZM1.44922 13.7283C1.47656 14.4392 2.05078 14.9587 2.76172 14.9587H9.46094C10.1719 14.9587 10.7461 14.4392 10.7734 13.7283L11.375 4.45874H0.875L1.44922 13.7283Z" fill="#FC4B4E"/>
</svg>
