<svg width="46" height="37" viewBox="0 0 46 37" fill="none" xmlns="http://www.w3.org/2000/svg">
<path d="M44.6445 26.375H43.5195V18.2188C43.5195 16.8828 42.957 15.6172 41.9727 14.6328L36.1367 8.79688C35.1523 7.8125 33.8867 7.25 32.5508 7.25H30.0195V4.4375C30.0195 2.32812 28.1914 0.5 26.082 0.5H4.70703C2.52734 0.5 0.769531 2.32812 0.769531 4.4375V25.8125C0.769531 27.9922 2.52734 29.75 4.70703 29.75H5.26953C5.26953 33.4766 8.29297 36.5 12.0195 36.5C15.7461 36.5 18.7695 33.4766 18.7695 29.75H27.7695C27.7695 33.4766 30.793 36.5 34.5195 36.5C38.2461 36.5 41.2695 33.4766 41.2695 29.75H44.6445C45.207 29.75 45.7695 29.2578 45.7695 28.625V27.5C45.7695 26.9375 45.207 26.375 44.6445 26.375ZM12.0195 33.125C10.1211 33.125 8.64453 31.6484 8.64453 29.75C8.64453 27.9219 10.1211 26.375 12.0195 26.375C13.8477 26.375 15.3945 27.9219 15.3945 29.75C15.3945 31.6484 13.8477 33.125 12.0195 33.125ZM26.6445 26.375H17.7852C16.6602 24.4062 14.4805 23 12.0195 23C9.48828 23 7.30859 24.4062 6.18359 26.375H4.70703C4.35547 26.375 4.14453 26.1641 4.14453 25.8125V4.4375C4.14453 4.15625 4.35547 3.875 4.70703 3.875H26.082C26.3633 3.875 26.6445 4.15625 26.6445 4.4375V26.375ZM30.0195 10.625H32.5508C32.9727 10.625 33.3945 10.8359 33.7461 11.1172L38.8789 16.25H30.0195V10.625ZM34.5195 33.125C32.6211 33.125 31.1445 31.6484 31.1445 29.75C31.1445 27.9219 32.6211 26.375 34.5195 26.375C36.3477 26.375 37.8945 27.9219 37.8945 29.75C37.8945 31.6484 36.3477 33.125 34.5195 33.125ZM40.1445 26.0938C38.8789 24.2656 36.8398 23 34.5195 23C32.7617 23 31.2148 23.7031 30.0195 24.7578V19.625H40.1445V26.0938Z" fill="#264653"/>
</svg>
