<svg width="16" height="19" viewBox="0 0 16 19" fill="none" xmlns="http://www.w3.org/2000/svg">
<path d="M11.1289 11.3011C10.1094 11.3011 9.65234 11.8636 8 11.8636C6.3125 11.8636 5.85547 11.3011 4.83594 11.3011C2.23438 11.3011 0.125 13.4457 0.125 16.0472V16.9261C0.125 17.8754 0.863281 18.6136 1.8125 18.6136H14.1875C15.1016 18.6136 15.875 17.8754 15.875 16.9261V16.0472C15.875 13.4457 13.7305 11.3011 11.1289 11.3011ZM14.1875 16.9261H1.8125V16.0472C1.8125 14.3597 3.14844 12.9886 4.83594 12.9886C5.36328 12.9886 6.17188 13.5511 8 13.5511C9.79297 13.5511 10.6016 12.9886 11.1289 12.9886C12.8164 12.9886 14.1875 14.3597 14.1875 16.0472V16.9261ZM8 10.7386C10.7773 10.7386 13.0625 8.48865 13.0625 5.67615C13.0625 2.8988 10.7773 0.613647 8 0.613647C5.1875 0.613647 2.9375 2.8988 2.9375 5.67615C2.9375 8.48865 5.1875 10.7386 8 10.7386ZM8 2.30115C9.82812 2.30115 11.375 3.84802 11.375 5.67615C11.375 7.53943 9.82812 9.05115 8 9.05115C6.13672 9.05115 4.625 7.53943 4.625 5.67615C4.625 3.84802 6.13672 2.30115 8 2.30115Z" fill="#264653"/>
</svg>
