<svg width="21" height="25" viewBox="0 0 21 25" fill="none" xmlns="http://www.w3.org/2000/svg">
<path fill-rule="evenodd" clip-rule="evenodd" d="M20.5819 21.87L20.5833 21.8733C20.9448 22.7284 21.3948 23.7926 20.3688 24.5799C20.0661 24.8123 19.6976 24.9301 19.2737 24.9301C18.7658 24.9301 18.2455 24.7655 17.7423 24.6063C17.5994 24.561 17.4644 24.5184 17.3296 24.4792C17.1008 24.4126 16.8449 24.3803 16.5475 24.3803C16.017 24.3803 15.3901 24.4828 14.6641 24.6015C13.5783 24.7791 12.227 25 10.5 25C8.77334 25 7.42219 24.7791 6.33653 24.6016L6.33598 24.6016L6.33521 24.6014C5.60948 24.4828 4.98274 24.3803 4.45247 24.3803C4.15497 24.3803 3.89917 24.4127 3.67041 24.4792C3.53551 24.5184 3.40056 24.5611 3.25771 24.6063L3.25715 24.6065C2.75407 24.7656 2.23391 24.9301 1.72625 24.9301C1.3024 24.9301 0.933943 24.8123 0.631141 24.58C-0.394741 23.7927 0.0551631 22.7285 0.416661 21.8735L0.416689 21.8734L0.417757 21.8709C0.498626 21.6795 0.582194 21.4818 0.651041 21.289C1.13709 19.9275 0.976797 18.0296 0.807098 16.0203L0.807092 16.0202L0.807028 16.0195C0.710797 14.8798 0.611291 13.7013 0.611291 12.5C0.611291 11.2988 0.710789 10.1203 0.807017 8.98068L0.807092 8.97978L0.807101 8.97968C0.976799 6.97039 1.13709 5.07253 0.651041 3.71104C0.581916 3.5175 0.498002 3.319 0.41683 3.12697L0.416739 3.12676L0.416736 3.12675C0.0551833 2.27157 -0.394764 1.20732 0.631141 0.42002C0.933893 0.187695 1.3023 0.0699219 1.72615 0.0699219C2.234 0.0699219 2.75431 0.234521 3.25746 0.39375L3.26591 0.39642C3.40574 0.4406 3.53807 0.482414 3.67036 0.52085C3.89922 0.587353 4.15502 0.619678 4.45247 0.619678C4.98297 0.619678 5.60993 0.517236 6.33588 0.398486L6.33594 0.398478C7.42174 0.22094 8.77298 0 10.5 0C12.2265 0 13.5777 0.220871 14.6634 0.398345L14.664 0.398438C15.39 0.517139 16.017 0.619629 16.5475 0.619629C16.845 0.619629 17.1008 0.587305 17.3295 0.52085C17.4645 0.481641 17.5995 0.438916 17.7424 0.393701C18.2456 0.234473 18.766 0.069873 19.2738 0.069873C19.6976 0.069873 20.066 0.187646 20.3688 0.419971C21.3948 1.20732 20.9448 2.27158 20.5832 3.12676L20.5822 3.12913C20.5014 3.32048 20.4178 3.51823 20.3489 3.71099C19.8629 5.07252 20.0231 6.97036 20.1928 8.97968L20.1928 8.97983L20.1929 8.98043C20.2891 10.1201 20.3886 11.2987 20.3886 12.5C20.3886 13.7012 20.2892 14.8795 20.1929 16.0191L20.1928 16.0201L20.1928 16.0202C20.0231 18.0295 19.8629 19.9274 20.3489 21.2889C20.4177 21.4814 20.5011 21.6789 20.5819 21.87ZM19.3887 12.5001C19.3887 11.3388 19.2909 10.1804 19.1963 9.06021L19.1962 9.0597C19.0177 6.94446 18.849 4.94651 19.4048 3.3896C19.4828 3.17084 19.5719 2.96004 19.6581 2.75618L19.659 2.75415C20.0638 1.79668 20.125 1.47495 19.751 1.18794C19.6253 1.09146 19.4736 1.04653 19.2738 1.04653C18.924 1.04653 18.4998 1.18071 18.0507 1.3228C17.9084 1.36782 17.7613 1.41436 17.6149 1.45693C17.2922 1.55068 16.943 1.59634 16.5475 1.59634C15.9343 1.59634 15.2698 1.4877 14.5005 1.36193L14.4989 1.36167C13.4496 1.19009 12.1437 0.976562 10.5 0.976562C8.85668 0.976562 7.55115 1.18994 6.50213 1.36139L6.50104 1.36157L6.49928 1.36186C5.73007 1.48762 5.06566 1.59624 4.45247 1.59624C4.05697 1.59624 3.70781 1.55063 3.38506 1.45679C3.23861 1.41426 3.09151 1.36772 2.94926 1.32271C2.50021 1.18062 2.07605 1.04644 1.72615 1.04644C1.52635 1.04644 1.37475 1.09131 1.249 1.18784C0.875043 1.4748 0.936193 1.79653 1.34105 2.75396C1.42755 2.9585 1.51695 3.17002 1.59525 3.38945C1.94955 4.38203 2.00925 5.554 1.95985 6.82119H3.48746C3.76356 6.82119 3.98747 7.03984 3.98747 7.30947C3.98747 7.5791 3.76356 7.79775 3.48746 7.79775H1.9046C1.87525 8.21201 1.8397 8.63354 1.8037 9.05996C1.70905 10.1802 1.61125 11.3386 1.61125 12.5C1.61125 13.6613 1.70905 14.8196 1.8037 15.9398C1.98235 18.0552 2.15105 20.0533 1.59525 21.6104C1.51759 21.8281 1.42891 22.0379 1.34312 22.241L1.341 22.246C0.936193 23.2033 0.875043 23.525 1.249 23.812C1.37475 23.9084 1.5264 23.9534 1.72625 23.9534C2.07615 23.9534 2.50039 23.8192 2.94948 23.6771L2.94951 23.6771C3.09171 23.6321 3.23871 23.5856 3.38511 23.5431C3.70781 23.4493 4.05702 23.4037 4.45247 23.4037C5.06571 23.4037 5.73022 23.5123 6.49951 23.6381L6.50109 23.6383C7.55039 23.8099 8.85625 24.0234 10.5 24.0234C12.1436 24.0234 13.4494 23.81 14.4985 23.6384L14.4989 23.6384C15.2689 23.5125 15.9338 23.4037 16.5474 23.4037C16.9429 23.4037 17.2921 23.4493 17.6148 23.5432C17.7612 23.5857 17.9082 23.6322 18.0505 23.6772C18.4996 23.8193 18.9237 23.9535 19.2736 23.9535C19.4735 23.9535 19.6252 23.9085 19.7509 23.812C20.1249 23.525 20.0637 23.2033 19.659 22.2461L19.6587 22.2452C19.5723 22.0409 19.483 21.8297 19.4048 21.6105C19.0504 20.6179 18.9907 19.4459 19.0402 18.1787H17.5125C17.2364 18.1787 17.0125 17.96 17.0125 17.6904C17.0125 17.4208 17.2364 17.2021 17.5125 17.2021H19.0954C19.1248 16.7878 19.1603 16.3663 19.1963 15.9399C19.2909 14.8197 19.3887 13.6614 19.3887 12.5001Z" fill="black"/>
<path fill-rule="evenodd" clip-rule="evenodd" d="M14 7.89365C14 8.96746 13.9328 9.70091 13.772 10.256C13.913 10.3476 14 10.5157 14 10.6976C14 11.7715 13.9328 12.5049 13.772 13.06C13.913 13.1516 14 13.3197 14 13.5016C14 15.0415 13.862 15.882 13.5078 16.4993C13.1364 17.1464 12.5606 17.4841 11.7638 17.9514L11.7637 17.9514L11.7635 17.9515C11.5221 18.0931 11.2545 18.2502 10.9594 18.4344V20.4886C10.9594 20.771 10.7537 21 10.5 21C10.2463 21 10.0407 20.771 10.0407 20.4886V18.4344C9.74552 18.2503 9.47791 18.0932 9.23643 17.9515C8.43946 17.4842 7.86362 17.1464 7.49224 16.4993C7.13803 15.882 7 15.0415 7 13.5016C7 13.3197 7.08695 13.1516 7.22797 13.06C7.06725 12.5049 7 11.7715 7 10.6976C7 10.5157 7.08695 10.3476 7.22797 10.256C7.06725 9.70091 7 8.96746 7 7.89365C7 7.71097 7.08755 7.54209 7.22967 7.45075C7.3718 7.35935 7.5469 7.35935 7.68902 7.45075C8.07624 7.69966 8.41864 7.90045 8.72085 8.07768L8.72292 8.07889C8.8328 8.14333 8.93808 8.20522 9.03964 8.26587C9.03147 8.17494 9.02724 8.08314 9.02724 7.99072C9.02724 7.10809 9.40969 6.2791 10.0406 5.76102V5.51144C10.0406 5.22902 10.2463 5 10.5 5C10.7536 5 10.9593 5.22902 10.9593 5.51144V5.76102C11.5902 6.2791 11.9727 7.10809 11.9727 7.99072C11.9727 8.08314 11.9685 8.17499 11.9603 8.26587C12.0618 8.20527 12.1671 8.14338 12.277 8.07889L12.2791 8.07768C12.5813 7.90045 12.9237 7.69966 13.3109 7.45075C13.453 7.35935 13.6281 7.35935 13.7702 7.45075C13.9124 7.54209 13.9999 7.71091 14 7.89365ZM12.7305 8.96899L12.7051 8.98388C11.4202 9.73748 11.0502 9.95448 10.9752 11.6509C11.1012 11.5759 11.2211 11.5056 11.3353 11.4386L11.3354 11.4385C12.6203 10.685 12.9903 10.468 13.0653 8.77158C12.9486 8.84107 12.8371 8.90648 12.7305 8.96899ZM13.0653 11.5757C12.9903 13.272 12.6203 13.489 11.3355 14.2425L11.3353 14.2427C11.2211 14.3096 11.1012 14.3799 10.9752 14.4549C11.0502 12.7585 11.4201 12.5416 12.705 11.7881L12.705 11.7881L12.7095 11.7854L12.7099 11.7852L12.7099 11.7852C12.8227 11.719 12.941 11.6496 13.0653 11.5757ZM7.93459 14.3796C8.0096 16.076 8.37951 16.293 9.66454 17.0466L9.68964 17.0613C9.79627 17.1238 9.90787 17.1893 10.0247 17.2589C9.94966 15.5625 9.57974 15.3456 8.29476 14.592L8.2833 14.5852L8.28271 14.5849L8.28242 14.5847L8.28224 14.5846L8.28182 14.5844C8.17148 14.5197 8.05588 14.4519 7.93459 14.3796ZM9.66454 14.2426C8.37951 13.489 8.0096 13.272 7.93459 11.5756C8.06068 11.6507 8.18052 11.721 8.29486 11.788C9.57979 12.5416 9.94966 12.7585 10.0247 14.4549C9.90278 14.3822 9.78656 14.3141 9.67573 14.2491L9.67557 14.249L9.66454 14.2426ZM7.93459 8.77163C8.0096 10.4681 8.37951 10.685 9.66454 11.4386L9.67557 11.4451L9.67573 11.4452C9.78656 11.5101 9.90278 11.5783 10.0247 11.6509C9.94966 9.95443 9.57974 9.73748 8.29472 8.98388L8.27094 8.96993C8.16387 8.90715 8.05188 8.84147 7.93459 8.77163ZM10.5 9.32183C10.153 8.99313 9.94593 8.50635 9.94593 7.99072C9.94589 7.47509 10.153 6.98831 10.5 6.65961C10.8469 6.98831 11.054 7.47509 11.054 7.99072C11.054 8.50635 10.8469 8.99313 10.5 9.32183ZM10.9752 17.2589C11.1012 17.1839 11.2211 17.1136 11.3353 17.0466L11.3354 17.0465C12.6204 16.2929 12.9903 16.076 13.0653 14.3796C12.9487 14.449 12.8375 14.5143 12.731 14.5767L12.7051 14.592C11.4201 15.3456 11.0502 15.5625 10.9752 17.2589Z" fill="black"/>
<path d="M11.5 2.75428C11.2239 2.75428 11 2.97557 11 3.24845V3.26011C11 3.53304 11.2239 3.75428 11.5 3.75428C11.7761 3.75428 12 3.53299 12 3.26011V3.24845C12 2.97557 11.7761 2.75428 11.5 2.75428Z" fill="black"/>
<path d="M4.50583 5.75428H4.49417C4.22124 5.75428 4 5.97818 4 6.25428C4 6.53038 4.22124 6.75428 4.49417 6.75428H4.50583C4.77871 6.75428 5 6.53038 5 6.25428C5 5.97818 4.77876 5.75428 4.50583 5.75428Z" fill="black"/>
<path d="M16.5058 16.7543H16.4942C16.2213 16.7543 16 16.9782 16 17.2543C16 17.5304 16.2213 17.7543 16.4942 17.7543H16.5058C16.7787 17.7543 17 17.5304 17 17.2543C17 16.9781 16.7788 16.7543 16.5058 16.7543Z" fill="black"/>
</svg>
